<svg width="571" height="468" viewBox="0 0 571 468" fill="none" xmlns="http://www.w3.org/2000/svg">
<g clip-path="url(#clip0)">
<path d="M511.544 453.988H150.602C149.761 453.988 149.2 453.428 149.2 452.587V197.569C149.2 196.728 149.761 196.168 150.602 196.168H511.544C512.385 196.168 512.946 196.728 512.946 197.569V452.587C512.946 453.428 512.385 453.988 511.544 453.988ZM152.005 451.186H510.142V198.97H152.005V451.186Z" fill="black"/>
<path d="M335.14 273.234H278.208V412.793H335.14V273.234Z" fill="url(#paint0_linear)"/>
<path d="M401.607 113.497H344.675V412.793H401.607V113.497Z" fill="url(#paint1_linear)"/>
<path d="M468.355 172.628H411.423V412.513H468.355V172.628Z" fill="url(#paint2_linear)"/>
<path d="M534.822 306.022H477.89V412.513H534.822V306.022Z" fill="url(#paint3_linear)"/>
<path d="M178.087 218.587C174.161 218.587 171.076 215.504 171.076 211.581C171.076 207.658 174.161 204.575 178.087 204.575C182.013 204.575 185.098 207.658 185.098 211.581C185.098 215.504 182.013 218.587 178.087 218.587ZM178.087 207.377C175.843 207.377 173.88 209.339 173.88 211.581C173.88 213.823 175.843 215.785 178.087 215.785C180.331 215.785 182.294 213.823 182.294 211.581C182.294 209.339 180.331 207.377 178.087 207.377Z" fill="black"/>
<path d="M198.56 218.587C194.634 218.587 191.549 215.504 191.549 211.581C191.549 207.658 194.634 204.575 198.56 204.575C202.486 204.575 205.571 207.658 205.571 211.581C205.571 215.504 202.486 218.587 198.56 218.587ZM198.56 207.377C196.317 207.377 194.353 209.339 194.353 211.581C194.353 213.823 196.317 215.785 198.56 215.785C200.804 215.785 202.767 213.823 202.767 211.581C202.767 209.339 200.804 207.377 198.56 207.377Z" fill="black"/>
<path d="M509.02 428.486H275.404C274.562 428.486 274.001 427.926 274.001 427.085C274.001 426.244 274.562 425.684 275.404 425.684H509.02C509.862 425.684 510.422 426.244 510.422 427.085C510.422 427.926 509.581 428.486 509.02 428.486Z" fill="black"/>
<path d="M561.464 349.459H529.212C528.371 349.459 527.81 348.898 527.81 348.057C527.81 347.217 528.371 346.656 529.212 346.656H561.464C562.306 346.656 562.866 347.217 562.866 348.057C562.866 348.898 562.306 349.459 561.464 349.459Z" fill="black"/>
<path d="M561.464 368.515H529.212C528.371 368.515 527.81 367.955 527.81 367.114C527.81 366.273 528.371 365.713 529.212 365.713H561.464C562.306 365.713 562.866 366.273 562.866 367.114C562.866 367.955 562.306 368.515 561.464 368.515Z" fill="black"/>
<path d="M552.77 387.571H529.212C528.371 387.571 527.81 387.011 527.81 386.17C527.81 385.33 528.371 384.769 529.212 384.769H552.77C553.612 384.769 554.172 385.33 554.172 386.17C554.172 387.011 553.612 387.571 552.77 387.571Z" fill="black"/>
<path d="M373.281 432.97C373.001 432.97 372.44 432.69 372.159 432.41C371.599 431.849 371.599 431.009 372.159 430.448C372.44 430.168 377.208 425.684 387.584 425.684C388.426 425.684 388.987 426.245 388.987 427.085C388.987 427.926 388.426 428.486 387.584 428.486C378.61 428.486 374.403 432.41 374.123 432.41C374.123 432.69 373.562 432.97 373.281 432.97Z" fill="black"/>
<path d="M166.869 248.292C166.589 248.292 166.589 248.292 166.308 248.292C165.467 248.012 165.187 247.171 165.467 246.33C165.467 246.33 166.589 242.968 162.943 240.165C158.736 236.802 148.079 234.841 137.141 243.528C136.581 244.089 135.739 243.808 135.178 243.248C134.617 242.687 134.898 241.847 135.459 241.286C147.799 231.478 159.858 234 164.906 237.923C170.235 242.127 168.272 247.171 168.272 247.451C167.991 248.012 167.43 248.292 166.869 248.292Z" fill="black"/>
<path d="M202.767 337.969C207.535 333.765 215.948 320.594 216.229 310.786C218.753 292.01 195.195 302.659 193.232 315.269C192.11 316.39 190.988 317.231 189.866 318.632C187.622 323.677 185.379 326.759 183.696 332.364C183.416 333.205 183.416 335.166 183.135 336.848C183.696 338.529 183.977 340.491 184.538 342.172C185.379 343.293 185.94 344.414 186.501 345.535C191.829 355.904 198.28 361.229 205.011 363.19C205.852 362.63 206.693 361.789 207.535 360.949C209.217 358.987 212.863 346.656 208.376 347.497C203.608 348.057 198.28 341.892 202.767 337.969Z" fill="black"/>
<path d="M210.339 419.799C210.058 419.799 209.778 419.799 209.778 419.519L186.781 407.468C186.22 407.188 185.939 406.347 186.22 405.787L202.767 363.471C196.036 360.948 190.427 354.783 185.659 345.816C180.891 336.848 181.733 327.039 188.183 319.473C195.194 310.786 208.095 306.582 217.631 309.665C234.458 314.989 242.03 322.836 242.31 323.116C242.591 323.677 242.871 324.237 242.591 324.798L239.786 330.122C241.188 333.485 246.798 348.898 234.738 358.707L212.021 418.678C211.741 418.958 211.461 419.238 211.18 419.519C210.619 419.519 210.339 419.799 210.339 419.799ZM189.024 405.787L209.497 416.436L231.653 357.586C231.653 357.305 231.934 357.025 232.214 357.025C244.273 347.497 236.421 331.243 236.421 330.963C236.14 330.683 236.14 330.122 236.421 329.562L239.225 324.517C236.982 322.556 229.69 316.671 216.509 312.467C207.815 309.665 196.597 313.588 190.146 321.435C186.781 325.358 182.294 333.765 188.183 344.695C192.951 353.662 198.56 359.267 205.291 361.509C205.571 361.509 205.852 361.789 206.132 362.35C206.412 362.63 206.412 363.19 206.132 363.471L189.024 405.787Z" fill="black"/>
<path d="M195.756 384.489L187.062 406.347L210.059 418.397L219.313 393.736C211.741 390.374 203.889 387.291 195.756 384.489Z" fill="black"/>
<path d="M210.339 419.799C210.059 419.799 209.778 419.799 209.778 419.518L186.781 407.468C186.22 407.188 185.94 406.347 186.22 405.787L194.914 383.928C195.195 383.087 196.036 382.807 196.597 383.087C203.889 385.609 211.461 388.692 220.155 392.335C220.716 392.615 221.277 393.456 220.996 394.017L211.741 418.678C211.461 418.958 211.181 419.238 210.9 419.518C210.62 419.518 210.339 419.799 210.339 419.799ZM189.025 405.787L209.498 416.436L217.631 394.577C209.778 391.214 203.047 388.692 196.597 386.17L189.025 405.787Z" fill="black"/>
<path d="M246.237 452.587H151.164C150.883 452.026 150.883 451.466 150.883 450.905V406.067C152.566 403.545 155.09 402.144 158.456 401.863C182.013 399.902 225.764 414.474 246.237 452.587Z" fill="black"/>
<path d="M213.424 336.568C210.9 334.606 208.656 332.644 206.132 330.682C205.011 329.842 203.608 329.562 202.486 330.682C201.645 331.523 201.365 333.485 202.486 334.326C205.011 336.287 207.254 338.249 209.778 340.211C210.9 341.051 212.302 341.332 213.424 340.211C214.266 339.37 214.546 337.688 213.424 336.568Z" fill="black"/>
<path d="M259.138 452.587H189.585C178.087 446.702 164.906 443.899 150.883 442.498C143.311 441.938 135.739 441.377 128.167 441.097C88.6228 439.696 45.7137 434.371 19.6317 401.303C-40.1045 326.479 62.8213 254.457 130.13 243.808C132.093 260.342 135.739 276.877 138.824 293.131C110.498 298.175 83.2943 310.786 63.6626 332.364C55.81 341.051 49.3596 351.42 54.4077 363.19C59.7363 375.521 72.9175 382.247 85.2574 385.61C106.572 391.495 128.727 390.934 150.883 392.055C163.503 392.616 175.843 393.736 187.903 397.099C218.192 405.226 244.274 425.123 259.138 452.587Z" fill="black"/>
<path d="M259.138 453.988H189.586C189.305 453.988 189.025 453.988 189.025 453.708C179.209 448.663 167.15 445.581 150.883 443.899C143.031 443.059 134.898 442.778 128.167 442.498C86.6598 440.817 44.592 434.932 18.51 402.144C0.000197768 378.884 -4.48703 354.503 5.32878 329.842C22.7168 285.004 83.8553 249.693 130.41 242.127C130.691 242.127 131.252 242.127 131.532 242.407C131.813 242.687 132.093 242.968 132.093 243.248C133.495 255.859 136.019 268.469 138.543 280.8C139.385 284.723 139.946 288.647 140.787 292.57C140.787 292.85 140.787 293.411 140.507 293.691C140.226 293.971 139.946 294.251 139.665 294.251C109.096 299.856 83.2944 313.308 65.3455 333.205C55.2492 344.414 52.4447 353.382 56.371 362.63C61.6996 374.96 75.4417 381.126 86.3794 384.208C103.206 388.972 121.155 389.533 138.263 390.093C142.75 390.374 147.237 390.374 151.725 390.654C162.943 391.214 176.124 392.335 189.305 395.698C220.435 403.825 246.517 424.283 261.381 451.746C261.662 452.307 261.662 452.587 261.381 453.147C259.979 453.708 259.418 453.988 259.138 453.988ZM189.866 451.186H256.614C242.03 425.404 217.07 406.347 187.623 398.501C174.722 395.138 161.821 394.017 150.883 393.456C146.396 393.176 141.909 393.176 137.702 392.896C120.314 392.335 102.365 391.775 85.2576 387.011C74.0395 383.928 59.456 377.202 53.5665 363.751C47.9575 350.299 56.371 338.81 63.1019 331.243C81.3312 311.066 107.133 297.614 137.702 291.729C137.141 288.366 136.3 284.723 135.739 281.36C133.495 269.59 130.971 257.26 129.569 245.21C83.8553 252.776 24.9604 287.526 8.1333 330.963C-1.12161 354.783 3.08517 378.043 21.0341 400.462C46.5552 432.41 87.7816 438.295 128.728 439.696C135.739 439.976 143.592 440.256 151.725 441.097C167.43 442.778 179.77 445.861 189.866 451.186Z" fill="black"/>
<path d="M130.13 243.808C146.677 240.165 167.991 243.808 169.394 249.974C170.796 256.139 169.955 258.1 169.955 258.1C169.955 258.1 172.479 264.546 170.235 269.59C167.711 274.635 173.881 281.36 167.711 285.003C163.785 287.526 138.824 293.411 138.824 293.411" fill="white"/>
<path d="M138.824 294.532C138.263 294.532 137.702 293.971 137.422 293.411C137.141 292.57 137.702 292.01 138.544 291.729C145.274 290.048 163.784 285.564 167.15 283.602C169.674 281.921 169.393 279.959 168.832 276.596C168.271 274.074 167.711 271.552 169.113 268.75C171.356 264.266 168.832 258.381 168.832 258.381C168.552 258.101 168.832 257.54 168.832 257.26C168.832 257.26 169.393 255.298 168.271 250.254C167.15 245.77 147.518 241.286 130.41 245.21C129.569 245.49 129.008 244.929 128.728 244.089C128.447 243.248 129.008 242.687 129.85 242.407C145.555 239.044 169.113 241.847 170.796 249.693C171.917 254.457 171.637 256.98 171.356 258.101C171.917 259.782 173.6 265.667 171.356 270.431C170.515 272.113 170.796 274.354 171.356 276.316C171.917 279.679 172.759 283.602 168.552 286.125C164.345 288.647 141.909 293.971 139.104 294.532H138.824Z" fill="black"/>
<path d="M259.138 128.63C277.26 128.63 291.95 113.95 291.95 95.8417C291.95 77.7334 277.26 63.0537 259.138 63.0537C241.016 63.0537 226.325 77.7334 226.325 95.8417C226.325 113.95 241.016 128.63 259.138 128.63Z" fill="black"/>
<path d="M259.138 130.031C240.347 130.031 224.922 114.618 224.922 95.8418C224.922 74.5436 237.823 61.6526 259.138 61.6526C277.928 61.6526 293.353 77.0658 293.353 95.8418C293.353 114.618 277.928 130.031 259.138 130.031ZM259.138 64.7352C239.225 64.7352 227.727 76.225 227.727 96.122C227.727 113.497 241.749 127.509 259.138 127.509C276.526 127.509 290.548 113.497 290.548 96.122C290.548 78.7472 276.245 64.7352 259.138 64.7352Z" fill="black"/>
<path d="M291.67 95.8418C291.67 114.057 277.087 128.63 258.857 128.63C255.492 128.63 252.407 128.069 249.322 127.229V64.1747C252.407 63.6142 255.492 63.334 258.857 63.334C277.087 63.334 291.67 77.9064 291.67 95.8418Z" fill="white"/>
<path d="M259.138 130.031C255.772 130.031 252.407 129.471 249.322 128.63C248.761 128.35 248.2 127.789 248.2 127.229V64.1747C248.2 63.6143 248.761 63.0538 249.322 62.7735C252.407 62.2131 255.492 61.6526 259.138 61.6526C277.928 61.6526 293.353 77.0658 293.353 95.8418C293.353 114.618 277.928 130.031 259.138 130.031ZM251.005 126.388C253.529 126.948 256.333 127.509 259.138 127.509C276.526 127.509 290.549 113.497 290.549 96.122C290.549 78.7472 276.526 64.7352 259.138 64.7352C256.333 64.7352 253.529 65.0155 251.005 65.5759V126.388Z" fill="black"/>
<path d="M531.457 237.083H249.602C248.761 237.083 248.2 236.522 248.2 235.681V1.4012C248.2 0.560479 248.761 0 249.602 0H531.457C532.298 0 532.859 0.560479 532.859 1.4012V235.681C532.859 236.522 532.018 237.083 531.457 237.083ZM251.005 234.28H530.054V2.8024H251.005V234.28Z" fill="black"/>
<path d="M461.343 84.3522C463.867 80.1486 463.306 73.7031 459.66 70.3402C454.893 66.1366 448.442 66.1366 443.675 70.3402C431.615 80.9893 437.224 102.007 452.93 105.09C458.539 106.211 465.269 103.408 466.672 97.2432C468.074 92.4791 466.111 86.5941 461.343 84.3522Z" fill="black"/>
<path d="M531.456 128.63V235.681H479.573C448.162 148.527 465.55 148.527 520.238 128.63C523.323 127.509 526.689 128.91 531.456 128.63Z" fill="white"/>
<path d="M531.456 237.083H479.573C479.012 237.083 478.451 236.802 478.17 236.242C462.465 192.805 459.1 171.507 465.831 157.775C472.001 144.604 487.425 138.999 510.703 130.872C513.788 129.751 516.873 128.63 519.958 127.509C521.921 126.668 524.165 126.948 526.408 127.229C528.091 127.509 529.774 127.509 531.456 127.509C531.737 127.509 532.298 127.509 532.578 127.789C532.859 128.069 533.139 128.35 533.139 128.91V235.962C532.859 236.522 532.017 237.083 531.456 237.083ZM480.414 234.28H530.054V130.031C528.652 130.031 527.25 129.751 525.847 129.751C523.884 129.471 522.201 129.471 520.799 130.031C517.714 131.152 514.349 132.273 511.544 133.394C489.108 141.521 474.244 146.565 468.355 158.896C462.185 171.507 465.55 192.805 480.414 234.28Z" fill="black"/>
<path d="M546.321 117.701C555.015 106.771 569.598 97.8036 571 82.9509C571 82.3905 571 81.5497 571 80.709C569.598 70.9006 560.343 70.6204 550.527 72.5821C508.46 80.709 521.08 73.9833 479.573 60.812L452.369 73.9833C452.369 73.9833 490.511 116.86 516.312 128.91H516.593C526.128 133.394 537.346 129.751 543.236 121.344C544.357 120.223 545.199 118.822 546.321 117.701Z" fill="black"/>
<path d="M482.658 76.7856C475.647 79.588 449.004 89.3964 445.077 89.6766C441.432 74.5437 451.247 63.0539 464.709 59.1305C479.293 54.6467 493.876 61.6527 498.644 75.9449C494.718 77.3461 489.389 77.6263 482.658 76.7856Z" fill="black"/>
<path d="M518.836 129.751L498.924 98.3641C499.205 97.2432 502.009 94.721 502.29 93.6C518.556 89.6767 510.142 71.1809 499.205 74.5438C498.924 74.5438 498.644 74.824 498.644 74.824C493.315 61.933 478.732 54.927 464.99 59.1306C450.406 63.6144 439.749 76.5054 446.48 93.6C450.687 104.529 462.185 118.541 475.647 119.102L489.108 140.12C506.216 170.105 520.8 137.878 518.836 129.751Z" fill="white"/>
<path d="M503.692 154.132C499.485 154.132 493.876 151.329 487.986 140.96L474.805 120.783C461.624 119.662 449.565 106.491 445.077 94.4407C442.273 86.8742 442.273 79.3078 445.358 73.1425C448.723 66.1365 455.735 60.812 464.429 58.0096C478.171 53.806 493.035 60.2515 499.205 73.1425C502.85 72.3018 506.216 73.1425 509.02 75.9449C512.105 78.7473 513.227 83.2311 512.386 86.8742C511.264 90.7976 508.179 93.6 503.131 94.7209C502.85 95.2814 502.29 96.1221 501.448 96.9629C501.168 97.2431 500.607 97.8036 500.326 98.0838L519.678 128.91L519.958 129.19C521.36 134.795 516.312 149.368 507.338 153.011C506.496 153.851 505.094 154.132 503.692 154.132ZM473.123 59.4108C470.598 59.4108 468.074 59.691 465.55 60.5317C457.417 63.0539 451.247 67.8179 448.162 74.2635C445.358 79.8682 445.358 86.594 447.882 93.3197C451.528 103.128 462.746 117.42 475.927 117.981C476.488 117.981 476.768 118.261 477.049 118.541L490.511 139.559C494.156 146.285 500.046 153.291 506.496 150.769C513.508 147.966 518.275 135.075 517.434 130.311L497.522 98.9245C497.241 98.6443 497.241 98.0838 497.522 97.8036C497.802 97.2431 498.363 96.4024 499.485 95.2814C500.046 94.7209 500.887 93.6 501.168 93.3197C501.168 92.7593 501.729 92.479 502.29 92.1988C506.496 91.0778 509.301 89.1162 510.142 86.0335C510.983 83.2311 509.862 79.8682 507.618 77.6263C505.374 75.6647 502.57 74.8239 500.046 75.6647L499.485 75.9449C498.644 76.2251 498.083 75.9449 497.802 75.1042C493.035 65.2958 483.219 59.4108 473.123 59.4108Z" fill="black"/>
<path d="M477.329 73.7029C472.001 77.0658 453.771 88.8358 443.114 86.0334C427.128 72.3017 442.273 58.0095 464.709 59.4107C471.44 59.6909 474.244 57.449 479.853 59.1304C486.864 61.3723 496.119 68.3783 498.643 76.225C490.23 82.6706 484.06 74.2634 477.329 73.7029Z" fill="black"/>
<path d="M477.048 120.783C476.487 120.783 475.927 120.783 475.366 120.783C474.524 120.783 473.963 119.942 473.963 119.382C473.963 118.541 474.805 117.981 475.366 117.981C480.414 118.541 483.499 116.299 486.023 114.338C486.584 113.777 487.425 113.777 487.986 114.338C488.547 114.898 488.547 115.739 487.986 116.299C485.742 118.261 482.377 120.783 477.048 120.783Z" fill="black"/>
<path d="M471.439 112.096C471.159 112.096 471.159 112.096 470.879 112.096C470.598 112.096 470.318 111.816 470.037 111.255C467.233 105.37 467.513 96.1221 467.513 95.8419C467.513 95.0012 468.074 94.4407 468.915 94.4407C469.757 94.4407 470.318 95.0012 470.318 95.8419C470.318 95.8419 470.318 103.408 472 108.733L476.768 106.211C477.329 105.931 478.17 106.211 478.731 106.771C479.292 107.332 478.731 108.172 478.17 108.733L472 111.816C472 112.096 471.72 112.096 471.439 112.096Z" fill="black"/>
<path d="M485.181 189.162C484.62 202.613 485.181 226.994 495.838 235.681L485.181 189.162Z" fill="white"/>
<path d="M495.839 237.083C495.558 237.083 495.278 237.083 494.997 236.802C483.779 227.835 483.218 202.893 483.779 189.162C483.779 188.321 484.34 187.76 485.182 187.76C486.023 187.76 486.584 188.321 486.584 189.162C486.023 199.811 486.023 225.873 496.68 234.56C497.241 235.121 497.241 235.962 496.96 236.522C496.68 236.802 496.119 237.083 495.839 237.083Z" fill="black"/>
<path d="M479.292 237.083C478.451 237.083 477.89 236.522 477.89 235.682V145.164C477.89 144.323 478.451 143.763 479.292 143.763C480.134 143.763 480.695 144.323 480.695 145.164V235.682C480.695 236.522 480.134 237.083 479.292 237.083Z" fill="black"/>
<path d="M502.57 237.083C501.728 237.083 501.167 236.522 501.167 235.681V153.011C501.167 152.17 501.728 151.61 502.57 151.61C503.411 151.61 503.972 152.17 503.972 153.011V235.681C503.972 236.522 503.411 237.083 502.57 237.083Z" fill="black"/>
<path d="M522.763 237.083C521.921 237.083 521.36 236.522 521.36 235.682V124.987C521.36 124.146 521.921 123.586 522.763 123.586C523.604 123.586 524.165 124.146 524.165 124.987V235.682C524.165 236.522 523.604 237.083 522.763 237.083Z" fill="black"/>
<path d="M531.456 179.633H465.83C464.989 179.633 464.428 179.073 464.428 178.232C464.428 177.392 464.989 176.831 465.83 176.831H531.456C532.298 176.831 532.859 177.392 532.859 178.232C532.859 179.073 532.017 179.633 531.456 179.633Z" fill="black"/>
<path d="M531.457 158.896H467.514C466.672 158.896 466.111 158.335 466.111 157.495C466.111 156.654 466.672 156.094 467.514 156.094H531.457C532.298 156.094 532.859 156.654 532.859 157.495C532.859 158.335 532.018 158.896 531.457 158.896Z" fill="black"/>
<path d="M531.456 200.371H467.794C466.953 200.371 466.392 199.811 466.392 198.97C466.392 198.129 466.953 197.569 467.794 197.569H531.456C532.298 197.569 532.859 198.129 532.859 198.97C532.859 199.811 532.017 200.371 531.456 200.371Z" fill="black"/>
<path d="M531.456 221.109H473.964C473.122 221.109 472.562 220.549 472.562 219.708C472.562 218.867 473.122 218.307 473.964 218.307H531.456C532.298 218.307 532.859 218.867 532.859 219.708C532.859 220.549 532.017 221.109 531.456 221.109Z" fill="black"/>
<path d="M531.456 138.438H519.116C518.275 138.438 517.714 137.878 517.714 137.037C517.714 136.196 518.275 135.636 519.116 135.636H531.456C532.297 135.636 532.858 136.196 532.858 137.037C532.858 137.878 532.017 138.438 531.456 138.438Z" fill="black"/>
<path d="M397.681 221.389C397.12 221.389 396.839 221.109 396.559 220.549L361.502 157.775L281.013 161.979C280.452 161.979 279.891 161.698 279.61 161.138C279.33 160.577 279.33 160.017 279.891 159.456L325.605 109.294L300.925 74.2636C300.644 73.7031 300.644 73.1426 300.925 72.8624C301.205 72.3019 301.766 72.0217 302.327 72.0217L329.811 73.9834L338.786 38.1127C338.786 37.5522 339.347 37.272 339.908 36.9917C340.469 36.9917 341.029 36.9917 341.31 37.272L359.539 55.4875C360.1 56.048 360.1 56.8887 359.539 57.4492C358.978 58.0097 358.137 58.0097 357.576 57.4492L341.029 40.9151L332.335 75.6648C332.055 76.2253 331.494 76.7858 330.933 76.7858L305.412 75.1043L329.25 108.733C329.531 109.294 329.531 110.134 329.25 110.414L285.22 158.896L363.185 154.973C363.746 154.973 364.307 155.253 364.587 155.813L398.242 216.065L411.142 145.725C411.142 145.164 411.703 144.604 412.545 144.604L457.417 143.203L415.069 90.5175C414.788 89.957 414.788 89.3965 415.069 88.8361L454.612 33.0684L421.519 46.5199C420.678 46.8001 420.117 46.5199 419.556 45.6792C419.276 44.8384 419.556 44.278 420.397 43.7175L457.978 28.5845C458.539 28.3043 459.1 28.5845 459.661 29.145C459.941 29.7055 459.941 30.266 459.661 30.8265L417.873 89.6768L459.941 143.483C460.221 143.763 460.222 144.323 460.222 144.884C459.941 145.444 459.661 145.725 459.1 145.725L412.545 147.126L399.083 220.268C399.083 220.829 398.522 221.389 397.681 221.389C397.961 221.389 397.681 221.389 397.681 221.389Z" fill="black"/>
<path d="M323.922 52.6851C323.08 52.6851 322.52 52.1247 322.52 51.2839V38.6732C322.52 37.8325 323.08 37.272 323.922 37.272C324.763 37.272 325.324 37.8325 325.324 38.6732V51.2839C325.324 51.8444 324.483 52.6851 323.922 52.6851Z" fill="black"/>
<path d="M295.596 46.2395C295.316 46.2395 295.035 46.2395 294.755 45.9593L282.976 34.7497C282.415 34.1892 282.415 33.3485 282.976 32.788C283.537 32.2276 284.378 32.2276 284.939 32.788L296.718 43.9976C297.279 44.5581 297.279 45.3988 296.718 45.9593C296.438 45.9593 295.877 46.2395 295.596 46.2395Z" fill="black"/>
<path d="M318.312 181.595C318.032 181.595 317.751 181.595 317.471 181.315C316.91 180.755 316.91 179.914 317.191 179.353L326.165 168.704C326.726 168.144 327.567 168.144 328.128 168.424C328.689 168.985 328.689 169.825 328.409 170.386L319.434 181.035C319.154 181.595 318.593 181.595 318.312 181.595Z" fill="black"/>
<path d="M444.236 161.138C443.955 161.138 443.675 161.138 443.394 160.858L435.542 153.852C434.981 153.291 434.981 152.45 435.542 151.89C436.103 151.329 436.944 151.329 437.505 151.89L445.358 158.896C445.918 159.456 445.918 160.297 445.358 160.858C445.077 160.858 444.797 161.138 444.236 161.138Z" fill="black"/>
<path d="M481.536 39.794C481.255 39.794 480.695 39.5138 480.414 39.2335C479.853 38.6731 480.134 37.8323 480.695 37.2719L494.998 25.5018C495.559 24.9413 496.4 25.2216 496.961 25.782C497.522 26.3425 497.241 27.1832 496.68 27.7437L482.377 39.5138C482.377 39.794 482.097 39.794 481.536 39.794Z" fill="black"/>
<path d="M404.692 75.6646C404.973 89.116 408.338 114.338 398.522 118.541C388.707 122.745 401.607 104.529 381.695 102.287" fill="white"/>
<path d="M396.279 120.503C395.718 120.503 395.157 120.503 394.596 119.942C393.194 119.102 392.913 117.14 392.913 114.898C392.633 110.414 392.352 104.809 381.695 103.408C380.854 103.408 380.293 102.568 380.573 101.727C380.573 100.886 381.415 100.326 382.256 100.606C395.157 102.007 395.718 109.854 395.998 114.618C395.998 115.739 396.279 117.14 396.559 117.42C396.559 117.42 397.12 117.701 398.522 116.86C405.814 113.777 404.973 95.5616 404.131 82.3903C403.851 79.8682 403.851 77.346 403.851 75.1041C403.851 74.2634 404.412 73.7029 405.253 73.7029C406.095 73.7029 406.655 74.2634 406.655 75.1041C406.655 77.346 406.936 79.5879 406.936 82.3903C407.777 97.243 408.619 115.459 399.644 119.382C398.242 120.223 397.12 120.503 396.279 120.503Z" fill="black"/>
<path d="M475.647 1.40112C464.429 5.60472 454.613 11.4897 445.919 18.4957C425.446 34.7496 411.704 57.1688 404.692 75.6646C398.522 73.4227 392.633 71.461 386.463 69.4993C383.378 68.6586 380.573 67.5377 377.488 66.6969C370.758 64.7353 364.027 62.7736 357.016 60.8119C356.735 60.8119 356.735 60.8119 356.455 60.5317C361.503 46.2395 368.514 32.5077 377.488 20.4574C378.049 19.8969 378.33 19.0562 378.891 18.4957C383.378 12.6107 388.146 6.72567 393.194 1.40112H475.647Z" fill="white"/>
<path d="M404.693 77.0658C404.412 77.0658 404.412 77.0658 404.132 77.0658C397.401 74.5437 391.511 72.582 385.902 70.9006C383.098 70.0598 380.013 68.9389 376.928 68.0982C371.319 66.4167 365.71 64.7353 359.82 63.0539L355.894 61.9329C355.614 61.9329 355.333 61.6527 355.053 61.0922C354.772 60.8119 354.772 60.2515 355.053 59.9712C360.101 45.3988 367.393 31.9473 376.087 19.3365C376.647 18.776 376.928 17.9353 377.489 17.3748C381.976 11.2095 386.744 5.60476 392.072 0.280206C392.353 -3.3915e-05 392.633 -0.280273 393.194 -0.280273H475.647C476.208 -0.280273 476.769 0.280206 477.049 0.840685C477.049 1.40116 476.769 2.24188 476.208 2.52212C465.831 6.44547 456.015 12.0503 446.76 19.3365C446.76 19.3365 446.76 19.3365 446.48 19.3365C428.531 33.6287 413.948 54.0862 405.814 75.6646C405.814 76.7856 405.254 77.0658 404.693 77.0658ZM358.418 59.691L360.942 60.2515C366.551 61.9329 372.441 63.6143 378.05 65.2958C381.135 66.1365 383.939 66.9772 387.024 68.0982C392.353 69.7796 397.962 71.7413 404.132 73.9832C412.265 52.4048 427.409 31.667 445.358 17.3748C445.358 17.3748 445.358 17.3748 445.639 17.3748C452.93 11.4898 460.783 6.72571 469.197 3.0826H394.316C389.268 8.12691 384.781 13.7317 380.574 19.6167C380.013 20.1772 379.732 20.7377 379.171 21.5784C370.197 33.0682 363.466 45.9592 358.418 59.691Z" fill="black"/>
<path d="M356.455 60.5317C349.724 84.0719 340.749 96.1222 344.676 102.287C348.602 108.453 355.052 102.287 355.052 102.287" fill="white"/>
<path d="M349.163 106.491C348.883 106.491 348.602 106.491 348.322 106.491C346.358 106.211 344.676 105.09 343.554 103.128C340.749 98.9245 343.273 93.0395 347.2 83.2311C349.724 77.0658 352.528 69.4994 355.333 60.2515C355.613 59.4108 356.455 59.1305 357.016 59.4108C357.857 59.691 358.137 60.5317 357.857 61.0922C355.052 70.6203 352.248 78.1868 349.724 84.3521C346.358 93.0395 344.115 98.6443 345.798 101.727C346.639 102.848 347.48 103.689 348.602 103.689C350.846 103.969 353.37 102.007 354.211 101.447C354.772 100.886 355.613 100.886 356.174 101.447C356.735 102.007 356.735 102.848 356.174 103.408C355.894 103.408 352.809 106.491 349.163 106.491Z" fill="black"/>
<path d="M356.455 87.4348C343.834 107.612 357.576 111.816 358.979 113.497L356.455 87.4348Z" fill="white"/>
<path d="M358.979 114.898C358.418 114.898 358.137 114.618 357.857 114.338C357.857 114.338 357.296 113.777 356.735 113.497C353.089 110.975 343.834 104.529 355.333 86.594C355.613 86.0335 356.735 85.7533 357.296 86.0335C357.857 86.3138 358.137 87.4347 357.857 87.9952C347.761 103.969 355.052 108.733 358.698 111.255C359.54 111.816 360.101 112.096 360.381 112.656C360.942 113.217 360.661 114.057 360.101 114.618C359.54 114.898 359.259 114.898 358.979 114.898Z" fill="black"/>
<path d="M381.695 102.287C371.038 100.886 367.953 128.63 359.82 128.63C351.406 128.63 353.65 121.904 365.429 90.5173" fill="white"/>
<path d="M359.82 130.031C358.137 130.031 355.613 129.751 354.211 127.789C351.406 123.866 354.772 114.618 364.027 89.9568C364.307 89.1161 365.148 88.8358 365.709 89.1161C366.551 89.3963 366.831 90.237 366.551 90.7975C358.698 111.815 354.491 123.305 356.454 126.108C356.735 126.388 357.296 126.948 359.539 126.948C362.344 126.948 364.868 121.344 367.392 115.739C370.758 108.172 374.684 99.7652 381.695 100.606C382.537 100.606 383.097 101.447 382.817 102.287C382.817 103.128 381.976 103.689 381.134 103.408C376.367 102.848 373.001 110.414 369.916 117.14C367.392 123.866 364.307 130.031 359.82 130.031Z" fill="black"/>
<path d="M377.489 68.0983C376.647 68.0983 376.086 67.5378 376.086 66.6971V20.1773C376.086 19.3366 376.647 18.7761 377.489 18.7761C378.33 18.7761 378.891 19.3366 378.891 20.1773V66.4168C378.891 67.2576 378.33 68.0983 377.489 68.0983Z" fill="black"/>
<path d="M398.522 74.824C397.681 74.824 397.12 74.2635 397.12 73.4228V1.4012C397.12 0.560479 397.681 0 398.522 0C399.364 0 399.925 0.560479 399.925 1.4012V73.4228C399.925 74.2635 399.364 74.824 398.522 74.824Z" fill="black"/>
<path d="M419.557 48.7617C418.715 48.7617 418.154 48.2012 418.154 47.3605V1.4012C418.154 0.560479 418.715 0 419.557 0C420.398 0 420.959 0.560479 420.959 1.4012V47.3605C420.959 47.921 420.398 48.7617 419.557 48.7617Z" fill="black"/>
<path d="M440.59 24.3808C439.749 24.3808 439.188 23.8204 439.188 22.9796V1.4012C439.188 0.560479 439.749 0 440.59 0C441.432 0 441.992 0.560479 441.992 1.4012V22.9796C441.992 23.8204 441.151 24.3808 440.59 24.3808Z" fill="black"/>
<path d="M461.344 9.52814C460.502 9.52814 459.941 8.96766 459.941 8.12695V1.4012C459.941 0.560479 460.502 0 461.344 0C462.185 0 462.746 0.560479 462.746 1.4012V8.12695C462.746 8.68742 462.185 9.52814 461.344 9.52814Z" fill="black"/>
<path d="M445.919 19.8969H378.891C378.05 19.8969 377.489 19.3364 377.489 18.4957C377.489 17.655 378.05 17.0945 378.891 17.0945H445.919C446.76 17.0945 447.321 17.655 447.321 18.4957C447.321 19.3364 446.76 19.8969 445.919 19.8969Z" fill="black"/>
<path d="M425.446 40.6347H365.99C365.149 40.6347 364.588 40.0742 364.588 39.2335C364.588 38.3928 365.149 37.8323 365.99 37.8323H425.446C426.287 37.8323 426.848 38.3928 426.848 39.2335C426.848 40.0742 426.287 40.6347 425.446 40.6347Z" fill="black"/>
<path d="M411.423 61.3725H357.016C356.174 61.3725 355.613 60.812 355.613 59.9713C355.613 59.1305 356.174 58.5701 357.016 58.5701H411.423C412.265 58.5701 412.825 59.1305 412.825 59.9713C412.825 60.812 412.265 61.3725 411.423 61.3725Z" fill="black"/>
<path d="M399.924 452.587H336.542V468H399.924V452.587Z" fill="black"/>
<path d="M346.919 453.988C346.639 453.988 346.639 453.988 346.358 453.988C345.517 453.708 345.236 452.867 345.517 452.307C350.845 438.575 358.137 425.964 377.769 425.964H414.227C414.788 425.964 415.349 426.244 415.349 426.805C415.349 427.085 417.312 430.448 415.349 433.811C413.947 436.333 410.862 437.734 406.094 438.014C393.755 438.855 392.072 450.905 392.072 453.147C392.072 453.988 391.23 454.549 390.67 454.549C389.828 454.549 389.267 453.708 389.267 453.147C389.828 445.301 394.596 436.053 406.094 435.492C409.74 435.212 412.264 434.371 413.106 432.69C413.947 431.569 413.667 429.887 413.386 429.047H377.769C360.942 429.047 353.93 438.855 348.321 453.708C348.041 453.708 347.48 453.988 346.919 453.988Z" fill="black"/>
<path d="M413.105 435.492C412.264 435.492 411.703 434.932 411.703 434.091C411.703 433.25 412.264 432.69 413.105 432.69C414.508 432.69 415.629 432.41 416.751 432.41C424.604 431.849 427.128 431.569 427.969 428.486C428.25 427.645 428.811 427.365 429.652 427.365C430.493 427.645 430.774 428.206 430.774 429.047C429.652 434.371 424.884 434.652 417.032 435.212C415.629 435.212 414.508 435.492 413.105 435.492Z" fill="black"/>
</g>
<defs>
<linearGradient id="paint0_linear" x1="306.79" y1="91.0778" x2="306.79" y2="561.881" gradientUnits="userSpaceOnUse">
<stop offset="0.00540541" stop-color="#485FE5"/>
<stop offset="1" stop-color="white"/>
</linearGradient>
<linearGradient id="paint1_linear" x1="373.306" y1="91.0779" x2="373.306" y2="561.88" gradientUnits="userSpaceOnUse">
<stop offset="0.00540541" stop-color="#485FE5"/>
<stop offset="1" stop-color="white"/>
</linearGradient>
<linearGradient id="paint2_linear" x1="439.824" y1="91.078" x2="439.824" y2="561.88" gradientUnits="userSpaceOnUse">
<stop offset="0.00540541" stop-color="#485FE5"/>
<stop offset="1" stop-color="white"/>
</linearGradient>
<linearGradient id="paint3_linear" x1="506.34" y1="91.0781" x2="506.34" y2="561.88" gradientUnits="userSpaceOnUse">
<stop offset="0.00540541" stop-color="#485FE5"/>
<stop offset="1" stop-color="white"/>
</linearGradient>
<clipPath id="clip0">
<rect width="571" height="468" fill="white"/>
</clipPath>
</defs>
</svg>
