<svg width="556" height="448" viewBox="0 0 556 448" fill="none" xmlns="http://www.w3.org/2000/svg">
<path d="M525.199 167.832H405.943V389.111H525.199V167.832Z" fill="url(#paint0_linear)"/>
<path d="M475.443 287.346C475.246 287.346 475.048 287.346 474.851 287.149L453.922 274.33L443.063 285.177C442.668 285.571 442.075 285.571 441.68 285.177C441.286 284.782 441.286 284.191 441.68 283.796L453.132 272.358C453.527 271.963 453.922 271.963 454.317 272.16L475.048 284.782L508.021 233.111C508.219 232.717 509.009 232.52 509.404 232.717C509.798 232.914 509.996 233.703 509.798 234.097L476.233 286.754C476.036 287.149 475.641 287.346 475.443 287.346Z" fill="white"/>
<path d="M297.745 81.4512H175.725V425.596H297.745V81.4512Z" fill="url(#paint1_linear)"/>
<path d="M253.122 344.145L256.084 105.511H217.385L220.149 344.145H253.122Z" fill="black"/>
<path d="M252.53 380.433H220.742C220.15 380.433 219.755 380.039 219.755 379.447C219.755 378.855 220.15 378.461 220.742 378.461H252.53C253.123 378.461 253.518 378.855 253.518 379.447C253.518 380.039 253.123 380.433 252.53 380.433Z" fill="black"/>
<path d="M252.727 368.403L253.122 355.189H220.347L220.742 368.403H252.727Z" fill="black"/>
<path d="M200.01 116.161H273.459L237.722 55.8127L200.01 116.161Z" fill="black"/>
<path d="M284.516 20.905H175.725V29.7798H284.516V20.905Z" fill="black"/>
<path d="M297.745 0H175.725V8.8748H297.745V0Z" fill="black"/>
<path d="M354.607 354.598C360.531 373.137 370.798 403.508 370.798 403.508C370.798 403.508 359.346 408.241 361.913 419.088H404.955C405.35 418.299 387.58 358.74 380.472 344.343C374.154 347.104 354.607 354.598 354.607 354.598Z" fill="white"/>
<path d="M404.758 420.074H361.716C361.321 420.074 360.926 419.68 360.728 419.285C358.556 409.622 366.849 404.494 369.416 403.113C367.836 398.183 358.951 371.559 353.62 354.992C353.423 354.401 353.62 354.006 354.213 353.809C354.41 353.809 373.76 346.315 379.88 343.751C380.275 343.554 380.868 343.751 381.262 344.145C386.593 354.795 406.93 417.51 405.745 419.68C405.548 419.877 405.153 420.074 404.758 420.074ZM362.505 418.102H403.574C401.599 410.411 386.791 360.514 379.683 345.723C373.562 348.287 359.346 353.809 355.595 355.19C361.518 373.531 371.39 402.916 371.39 403.311C371.588 403.705 371.39 404.297 370.798 404.494C370.601 404.494 361.123 408.833 362.505 418.102Z" fill="black"/>
<path d="M434.77 330.734C452.342 339.215 491.041 354.992 491.041 354.992C491.041 354.992 488.672 368.206 502.493 373.531L516.906 335.862C516.708 335.073 468.137 316.535 448.788 303.518C446.221 310.224 434.77 330.734 434.77 330.734Z" fill="black"/>
<path d="M443.062 339.412C447.603 330.143 455.699 315.746 460.437 306.674C415.815 282.219 391.53 232.323 384.027 182.23C369.811 178.482 355.792 174.341 342.169 169.213C341.774 170.199 341.379 171.185 341.182 172.369C328.545 235.281 331.309 300.757 350.067 362.092C360.136 360.12 378.301 355.189 388.173 352.823C375.932 312.985 362.308 273.936 364.282 232.323C377.906 276.5 403.179 318.113 443.062 339.412Z" fill="black"/>
<path d="M460.437 306.674C455.699 315.746 447.603 330.143 443.062 339.412C429.044 331.721 416.605 321.663 405.943 309.829V250.073C418.777 273.541 436.744 293.658 460.437 306.674Z" fill="white"/>
<path d="M407.917 257.567C420.949 279.458 437.731 296.221 457.673 307.66C455.896 311.21 453.527 315.352 451.157 319.888C447.998 325.804 444.642 331.918 442.075 337.046C429.636 330.143 418.184 320.676 407.917 309.435V257.567ZM405.943 250.073V309.829C416.605 321.663 428.846 331.918 443.062 339.412C447.603 330.143 455.699 315.746 460.437 306.674C436.744 293.658 418.777 273.541 405.943 250.073Z" fill="black"/>
<path d="M397.65 394.83H368.626C368.034 394.83 367.639 394.436 367.639 393.844C367.639 393.253 368.034 392.858 368.626 392.858H397.65C398.242 392.858 398.637 393.253 398.637 393.844C398.637 394.436 398.242 394.83 397.65 394.83Z" fill="black"/>
<path d="M484.328 352.429C484.13 352.429 484.13 352.429 483.933 352.429C483.341 352.231 483.143 351.64 483.341 351.245L491.633 325.607C491.831 325.015 492.423 324.818 492.818 325.015C493.41 325.213 493.608 325.804 493.41 326.199L485.118 351.837C485.118 352.231 484.723 352.429 484.328 352.429Z" fill="white"/>
<path d="M377.313 404.494H370.798C370.205 404.494 369.811 404.099 369.811 403.508C369.811 402.916 370.205 402.522 370.798 402.522H377.313C377.906 402.522 378.301 402.916 378.301 403.508C378.301 404.099 377.906 404.494 377.313 404.494Z" fill="black"/>
<path d="M491.041 356.176C490.844 356.176 490.646 356.176 490.646 355.978C490.251 355.781 490.054 355.189 490.251 354.598L492.621 350.456C492.818 350.062 493.41 349.865 494.003 350.062C494.398 350.259 494.595 350.851 494.398 351.442L492.028 355.584C491.633 355.978 491.238 356.176 491.041 356.176Z" fill="white"/>
<path d="M363.492 229.365C363.098 229.365 362.703 229.167 362.505 228.576C362.308 227.984 358.359 213.193 357.767 205.304C357.767 204.712 358.161 204.318 358.754 204.318C359.346 204.318 359.741 204.712 359.741 205.304C360.333 212.798 364.48 227.984 364.48 228.181C364.677 228.773 364.282 229.167 363.887 229.365C363.69 229.365 363.69 229.365 363.492 229.365Z" fill="white"/>
<path d="M288.07 62.3211C271.485 59.3628 265.561 63.5044 260.033 67.6459C257.269 69.8153 252.727 76.718 252.333 81.6484" fill="white"/>
<path d="M252.332 82.6344C251.74 82.6344 251.345 82.0428 251.345 81.6483C251.74 76.3234 256.479 69.2236 259.44 67.0542C264.771 62.9126 270.892 58.3766 288.267 61.5321C288.859 61.5321 289.254 62.1237 289.057 62.7154C289.057 63.3071 288.465 63.7015 287.872 63.5043C271.287 60.546 265.759 64.6876 260.625 68.6319C258.058 70.6041 253.715 77.1123 253.32 81.8455C253.32 82.24 252.727 82.6344 252.332 82.6344Z" fill="black"/>
<path d="M252.728 80.2678C257.269 75.7318 260.625 72.9707 260.625 72.9707L252.728 80.2678Z" fill="white"/>
<path d="M252.728 81.2539C252.53 81.2539 252.135 81.2539 251.938 81.0567C251.543 80.6622 251.543 80.0706 251.938 79.6761C256.479 75.1401 259.836 72.1819 259.836 72.1819C260.23 71.7874 260.823 71.7874 261.218 72.3791C261.612 72.7735 261.612 73.3652 261.02 73.7596C261.02 73.7596 257.664 76.7179 253.122 81.0567C253.32 81.0567 253.122 81.2539 252.728 81.2539Z" fill="black"/>
<path d="M266.153 80.2678L275.038 71.1958L286.687 74.3513L283.528 87.1704L267.141 84.015L266.153 80.2678Z" fill="white"/>
<path d="M264.771 77.7039C262.994 84.6065 257.663 85.0009 259.44 89.3397C261.217 93.8757 269.707 82.6343 277.408 84.6065" fill="white"/>
<path d="M260.822 91.5091C260.625 91.5091 260.23 91.5091 260.033 91.3119C259.243 91.1147 258.848 90.523 258.453 89.7341C257.268 86.7759 258.65 85.1981 260.23 83.6204C261.612 82.2399 262.994 80.4649 263.784 77.5066C263.981 76.915 264.376 76.7178 264.969 76.7178C265.561 76.915 265.758 77.3094 265.758 77.9011C264.771 81.451 262.994 83.4232 261.81 84.8037C260.23 86.5787 259.638 87.1703 260.427 88.9453C260.625 89.3397 260.822 89.3397 260.822 89.3397C261.612 89.5369 263.587 88.3536 265.561 87.1703C269.115 85.0009 273.459 82.4371 277.802 83.6204C278.395 83.8176 278.592 84.212 278.592 84.8037C278.395 85.3954 277.802 85.5926 277.408 85.5926C273.854 84.6065 269.905 86.9731 266.746 88.9453C264.179 90.3258 262.204 91.5091 260.822 91.5091Z" fill="black"/>
<path d="M436.547 221.87C443.457 227.195 443.26 232.717 446.419 235.873C449.578 239.028 449.973 232.52 449.973 229.364C449.973 226.209 456.686 237.845 459.648 236.07C462.609 234.295 456.094 226.406 456.094 226.406C456.094 226.406 462.017 235.084 464.584 232.52C467.151 229.956 459.648 221.673 459.648 221.673C459.648 221.673 465.176 229.759 467.545 227.984C469.915 226.209 462.214 214.179 448.196 202.148" fill="white"/>
<path d="M447.999 237.648C447.209 237.648 446.617 237.253 445.827 236.464C444.445 235.084 443.655 233.506 442.865 231.534C441.681 228.773 440.101 225.617 435.955 222.462C435.56 222.067 435.362 221.476 435.757 221.081C436.152 220.687 436.744 220.49 437.139 220.884C441.681 224.237 443.26 227.787 444.642 230.745C445.432 232.52 446.024 233.901 447.209 235.084C447.801 235.675 447.999 235.675 447.999 235.675C448.394 235.478 449.183 233.703 449.183 229.365C449.183 228.378 449.776 227.984 449.973 227.984C450.96 227.59 451.948 228.576 453.922 230.745C455.107 232.126 458.266 235.676 459.253 235.281C459.45 235.281 459.45 235.084 459.45 234.887C459.648 233.703 458.463 231.534 457.081 229.365C456.291 228.378 455.699 227.392 455.304 226.998C455.107 226.603 455.107 226.012 455.502 225.617C455.896 225.223 456.489 225.42 456.884 225.815C457.081 226.209 457.871 226.998 458.661 228.181C460.24 230.153 462.215 231.928 463.399 232.126C463.597 232.126 463.794 232.126 463.992 231.928C464.781 231.139 463.794 228.97 462.215 226.603C460.635 225.026 459.253 223.054 458.858 222.462C458.661 222.067 458.661 221.476 459.056 221.081C459.45 220.687 460.043 220.884 460.438 221.279C461.03 221.87 462.412 223.448 463.794 225.42C464.979 226.603 465.966 227.59 466.756 227.59C466.953 227.59 466.953 227.59 466.953 227.59C467.94 226.012 461.425 214.968 447.406 203.332C447.012 202.937 447.012 202.346 447.209 201.951C447.604 201.557 448.196 201.557 448.591 201.754C461.227 212.404 468.928 223.251 468.73 227.392C468.73 228.378 468.335 228.97 467.94 229.167C467.348 229.562 466.756 229.759 466.164 229.562C465.966 229.562 465.769 229.562 465.571 229.365C466.164 230.942 466.164 232.323 465.176 233.309C464.584 233.901 463.794 234.098 463.004 234.098C462.412 234.098 461.82 233.703 461.03 233.309C461.227 233.901 461.227 234.492 461.227 235.084C461.03 235.873 460.635 236.464 460.043 236.859C457.673 238.239 454.712 234.887 452.145 231.928C451.75 231.534 451.158 230.942 450.763 230.548C450.565 236.662 448.986 237.253 448.394 237.45C448.591 237.648 448.196 237.648 447.999 237.648Z" fill="black"/>
<path d="M436.547 221.87C423.515 213.784 398.638 193.668 386.396 181.243C386.199 183.413 385.409 187.752 384.816 191.893C380.67 190.118 336.048 172.96 336.048 172.96L343.551 154.225C342.761 150.083 344.736 144.758 349.869 138.447C333.284 115.767 303.272 91.9038 275.038 84.6067L288.069 62.5183C321.042 70.9987 348.684 99.398 368.034 125.825C368.626 126.614 369.219 127.403 369.811 128.192C373.562 133.122 378.103 138.25 382.842 143.378C403.771 165.86 432.005 188.935 448.196 202.543L436.547 221.87Z" fill="white"/>
<path d="M436.547 222.856C436.349 222.856 436.152 222.856 435.954 222.659C423.91 215.165 400.217 196.232 386.988 183.413C386.791 184.596 386.594 185.779 386.396 187.16C386.199 188.738 385.804 190.315 385.606 191.893C385.606 192.288 385.409 192.485 385.212 192.682C385.014 192.879 384.619 192.879 384.422 192.682C380.275 191.104 336.246 173.946 335.851 173.749C335.653 173.749 335.456 173.552 335.258 173.157C335.061 172.96 335.061 172.566 335.258 172.369L342.564 153.83C341.971 149.491 343.946 144.166 348.685 138.053C333.876 117.739 304.457 92.8898 274.841 85.1983C274.446 85.1983 274.248 85.0011 274.248 84.6066C274.051 84.4094 274.248 84.015 274.248 83.8178L287.28 61.7294C287.477 61.3349 287.872 61.1377 288.464 61.3349C322.819 70.2097 351.251 100.778 369.021 125.036C369.613 125.825 370.206 126.614 370.798 127.403C374.352 132.136 378.696 137.264 383.829 142.589C402.389 162.508 426.872 183.018 443.26 196.824C445.432 198.599 447.406 200.176 449.183 201.754C449.578 202.148 449.578 202.543 449.381 202.937L437.731 222.265C437.534 222.462 437.336 222.659 437.139 222.659C436.744 222.856 436.744 222.856 436.547 222.856ZM386.396 180.257C386.594 180.257 386.989 180.454 387.186 180.454C399.625 192.879 423.515 212.207 436.349 220.292L447.011 202.543C445.432 201.162 443.655 199.782 441.68 198.204C425.49 184.596 400.81 163.888 382.25 143.772C377.314 138.447 372.773 133.122 369.219 128.389C368.626 127.6 368.034 126.811 367.442 126.022C350.067 102.356 322.227 72.1819 288.662 63.3071L276.618 83.8178C306.629 91.9037 335.851 117.345 350.659 137.658C350.856 138.053 350.856 138.447 350.659 138.842C345.92 144.758 343.946 149.886 344.538 153.83C344.538 154.027 344.538 154.225 344.538 154.422L337.43 172.369C343.354 174.735 376.721 187.554 384.027 190.513C384.224 189.329 384.422 188.146 384.619 186.963C385.014 184.596 385.409 182.624 385.409 181.243C385.409 180.849 385.606 180.454 386.001 180.454C386.199 180.257 386.396 180.257 386.396 180.257Z" fill="black"/>
<path d="M448.196 202.346L436.547 221.673C428.846 216.94 417 207.868 405.943 198.598V167.833H407.917C422.923 181.441 437.929 193.668 448.196 202.346Z" fill="black"/>
<path d="M388.766 99.398C388.766 99.398 388.568 99.398 388.766 99.398C381.855 99.7924 378.301 102.159 378.301 102.159L378.893 104.723C378.893 104.723 374.155 109.653 378.301 114.584L373.365 132.531C372.575 131.544 371.588 130.361 370.798 129.178L364.875 145.35L382.053 143.18L382.842 142.983C382.645 142.786 388.766 119.711 388.766 119.711C388.963 119.711 389.555 119.711 389.555 119.514C389.753 119.514 390.148 119.317 390.543 119.317H390.74C390.937 119.317 391.135 119.12 391.53 119.12C391.925 118.923 392.517 118.725 392.912 118.528C393.109 118.331 393.504 118.134 393.702 117.936C394.886 117.148 396.071 116.161 397.256 114.781C403.179 107.878 395.479 99.0035 388.766 99.398Z" fill="white"/>
<path d="M364.678 146.336C364.283 146.336 364.085 146.138 363.888 145.941C363.69 145.744 363.69 145.35 363.69 144.955L369.614 128.783C369.811 128.389 370.009 128.192 370.404 128.192C370.798 128.192 371.193 128.192 371.391 128.586C371.786 129.178 372.378 129.769 372.773 130.361L377.117 114.781C374.155 110.639 376.129 106.498 377.709 104.328L377.117 102.356C376.919 101.962 377.117 101.567 377.511 101.37C377.709 101.173 381.263 99.0034 388.173 98.4118H388.371C392.517 98.2146 396.861 100.976 398.835 105.117C400.612 108.667 400.02 112.611 397.256 115.57C396.071 116.95 394.689 118.134 393.504 118.922C393.307 119.12 392.912 119.317 392.715 119.514C392.32 119.711 391.727 120.106 391.135 120.303C390.938 120.5 390.543 120.5 390.345 120.5C390.148 120.5 390.148 120.5 389.95 120.5C389.753 120.5 389.556 120.697 389.161 120.697H388.963C386.791 129.178 383.435 141.602 383.237 142.983C383.237 143.18 383.237 143.18 383.237 143.377C383.04 143.772 382.842 143.969 382.448 143.969L364.678 146.336C364.875 146.336 364.875 146.336 364.678 146.336ZM370.996 131.347L366.257 144.364L382.053 142.391C382.448 140.222 383.83 134.7 387.778 119.711C387.976 119.317 388.173 119.12 388.568 118.922C388.766 118.922 388.963 118.922 389.161 118.922C389.358 118.922 389.753 118.725 389.95 118.725C390.345 118.725 390.543 118.528 390.74 118.528C391.135 118.331 391.727 118.134 392.122 117.936C392.32 117.739 392.517 117.739 392.715 117.542C393.899 116.753 395.084 115.767 396.071 114.386C399.033 111.034 398.046 107.681 397.256 106.103C395.676 102.751 391.925 100.384 388.568 100.581H388.371C383.632 100.976 380.473 102.159 379.288 102.948L379.683 104.723C379.683 105.117 379.683 105.314 379.486 105.709C379.288 105.906 375.34 110.048 378.894 114.386C379.091 114.584 379.091 114.978 379.091 115.175L374.155 133.122C373.957 133.517 373.76 133.714 373.365 133.911C372.97 133.911 372.575 133.911 372.378 133.517C371.983 132.53 371.588 131.939 370.996 131.347Z" fill="black"/>
<path d="M388.568 113.598C386.989 112.809 387.186 117.936 387.778 118.725C387.976 119.12 389.555 128.783 391.332 133.319C393.504 139.039 398.045 144.561 402.389 148.702C408.313 154.422 419.962 157.577 427.465 153.238C433.98 149.491 435.757 141.208 432.006 135.094C429.439 130.756 424.503 128.389 419.962 126.417C417.197 125.233 414.236 124.642 411.472 123.458C403.179 120.106 401.994 116.556 400.415 108.667C400.217 107.878 399.625 107.484 399.033 107.287C397.848 102.751 393.109 99.0035 388.766 99.3979C388.173 103.145 390.148 108.667 391.53 110.639C392.912 112.612 390.345 114.584 388.568 113.598Z" fill="black"/>
<path d="M175.922 426.582H53.9018C53.3094 426.582 52.9146 426.188 52.9146 425.596V196.232C52.9146 195.64 53.3094 195.246 53.9018 195.246H175.922C176.514 195.246 176.909 195.64 176.909 196.232V425.596C176.909 426.188 176.317 426.582 175.922 426.582ZM54.889 424.61H174.934V197.218H54.889V424.61Z" fill="black"/>
<path d="M107.606 395.422L106.027 358.739L69.6971 361.106L81.5437 371.953L60.6147 395.027L74.6332 407.846L95.7596 384.772L107.606 395.422Z" fill="url(#paint2_linear)"/>
<path d="M107.409 303.715L155.388 306.082L156.77 258.552L141.369 272.555L113.53 242.38L94.9702 259.341L122.81 289.515L107.409 303.715Z" fill="white"/>
<path d="M155.388 307.068L107.212 304.701C106.817 304.701 106.422 304.504 106.422 304.11C106.224 303.715 106.422 303.321 106.619 303.124L121.23 289.713L94.1804 260.327C93.9829 260.13 93.9829 259.933 93.9829 259.538C93.9829 259.341 94.1804 258.947 94.3778 258.947L112.937 241.986C113.332 241.592 113.925 241.592 114.32 241.986L141.369 271.371L155.98 257.961C156.178 257.763 156.77 257.566 156.967 257.763C157.362 257.961 157.56 258.355 157.56 258.75L156.375 306.476C156.375 306.673 156.178 307.068 155.98 307.265C155.98 307.068 155.585 307.068 155.388 307.068ZM109.778 302.926L154.401 305.293L155.585 260.919L141.962 273.541C141.567 273.935 140.974 273.935 140.58 273.541L113.53 244.155L96.5497 259.736L123.599 289.121C123.797 289.318 123.797 289.515 123.797 289.91C123.797 290.107 123.599 290.502 123.402 290.502L109.778 302.926Z" fill="black"/>
<path d="M160.126 413.368C159.731 413.368 159.336 413.171 159.139 412.777L146.305 381.222H123.599C123.007 381.222 122.612 380.827 122.612 380.236L120.835 323.24L79.9643 326.198C79.3719 326.198 78.9771 325.804 78.9771 325.212C78.9771 324.62 79.3719 324.226 79.9643 324.226L121.822 321.268C122.02 321.268 122.415 321.268 122.612 321.465C122.809 321.662 123.007 321.859 123.007 322.254L124.784 379.25H147.095C147.49 379.25 147.885 379.447 148.082 379.841L161.311 412.185C161.508 412.777 161.311 413.171 160.719 413.566C160.324 413.368 160.324 413.368 160.126 413.368Z" fill="black"/>
<path d="M61.997 344.145C61.4047 344.145 61.0098 343.751 61.0098 343.159L61.6021 275.119C61.6021 274.922 61.7995 274.527 61.997 274.33C62.1944 274.133 62.3919 274.133 62.7868 274.133L82.926 275.316L99.5112 224.039C99.7086 223.645 100.104 223.25 100.696 223.448L123.204 227.984L134.261 201.754C134.459 201.162 135.051 200.965 135.643 201.162C136.236 201.359 136.433 201.951 136.236 202.543L124.784 229.364C124.586 229.759 124.192 229.956 123.599 229.956L101.091 225.42L84.703 276.499C84.5055 276.894 84.1106 277.288 83.7157 277.091L63.5765 276.105L62.9842 343.159C62.9842 343.751 62.5893 344.145 61.997 344.145Z" fill="black"/>
<path d="M146.503 245.142C151.41 245.142 155.388 241.168 155.388 236.267C155.388 231.365 151.41 227.392 146.503 227.392C141.596 227.392 137.618 231.365 137.618 236.267C137.618 241.168 141.596 245.142 146.503 245.142Z" fill="black"/>
<path d="M79.9643 347.301C83.2357 347.301 85.8876 344.652 85.8876 341.384C85.8876 338.116 83.2357 335.468 79.9643 335.468C76.693 335.468 74.041 338.116 74.041 341.384C74.041 344.652 76.693 347.301 79.9643 347.301Z" fill="url(#paint3_linear)"/>
<path d="M140.343 356.417L132.136 361.15L136.874 369.348L145.082 364.615L140.343 356.417Z" fill="white"/>
<path d="M136.828 370.375H136.63C136.433 370.375 136.236 370.178 136.038 369.98L131.299 361.697C131.102 361.5 131.102 361.106 131.299 360.908C131.497 360.711 131.497 360.514 131.694 360.317L139.987 355.584C140.382 355.386 140.974 355.386 141.369 355.978L146.108 364.261C146.305 364.656 146.305 365.247 145.713 365.642L137.42 370.375C137.223 370.375 137.025 370.375 136.828 370.375ZM133.471 361.5L137.223 368.008L143.738 364.261L139.987 357.753L133.471 361.5Z" fill="black"/>
<path d="M154.795 325.606H137.815C137.223 325.606 136.828 325.212 136.828 324.62C136.828 324.029 137.223 323.634 137.815 323.634H154.795C155.388 323.634 155.783 324.029 155.783 324.62C155.783 325.212 155.388 325.606 154.795 325.606Z" fill="black"/>
<path d="M154.795 334.087H137.815C137.223 334.087 136.828 333.693 136.828 333.101C136.828 332.509 137.223 332.115 137.815 332.115H154.795C155.388 332.115 155.783 332.509 155.783 333.101C155.783 333.693 155.388 334.087 154.795 334.087Z" fill="black"/>
<path d="M77.3402 120.138L1.09619 154.2L41.4042 244.22L117.648 210.158L77.3402 120.138Z" fill="white"/>
<path d="M41.2656 245.142C40.8708 245.142 40.4759 244.945 40.2784 244.55L0 154.619C0 154.224 0 154.027 0 153.83C0 153.633 0.197443 153.435 0.59233 153.238L76.8054 119.12C77.3978 118.922 77.7926 119.12 78.1875 119.711L118.466 209.643C118.663 209.84 118.663 210.234 118.466 210.431C118.466 210.629 118.269 210.826 117.874 211.023L41.6605 245.142C41.4631 245.142 41.4631 245.142 41.2656 245.142ZM2.36932 154.619L41.858 242.775L116.294 209.643L76.8054 121.486L2.36932 154.619Z" fill="black"/>
<path d="M30.2087 174.538C29.8138 174.538 29.4189 174.341 29.2215 173.946C29.0241 173.354 29.2215 172.96 29.8138 172.566L75.6207 152.055C76.213 151.858 76.6079 152.055 77.0028 152.647C77.2002 153.238 77.0028 153.633 76.4104 154.027L30.6036 174.341C30.6036 174.341 30.4062 174.538 30.2087 174.538Z" fill="black"/>
<path d="M76.8052 174.341C79.3719 173.157 81.7413 172.171 84.308 170.988L76.8052 174.341Z" fill="white"/>
<path d="M76.8054 175.327C76.4105 175.327 76.0156 175.13 75.8182 174.735C75.6207 174.144 75.8182 173.749 76.4105 173.355L83.9134 170.002C84.5057 169.805 84.9006 170.002 85.2955 170.594C85.4929 171.185 85.2955 171.58 84.7031 171.974L77.2003 175.327C77.0028 175.327 76.8054 175.327 76.8054 175.327Z" fill="black"/>
<path d="M38.3042 191.499C46.7943 187.752 55.2843 184.004 63.7744 180.06L38.3042 191.499Z" fill="white"/>
<path d="M38.3039 192.485C37.909 192.485 37.5142 192.288 37.3167 191.893C37.1193 191.301 37.3167 190.907 37.909 190.513L63.3792 179.074C63.9715 178.877 64.3664 179.074 64.7613 179.666C64.9588 180.257 64.7613 180.652 64.169 181.046L38.6988 192.485C38.6988 192.485 38.5014 192.485 38.3039 192.485Z" fill="black"/>
<path d="M364.678 436.837H38.8964C38.3041 436.837 37.9092 436.443 37.9092 435.851C37.9092 435.26 38.3041 434.865 38.8964 434.865H364.678C365.27 434.865 365.665 435.26 365.665 435.851C365.665 436.443 365.27 436.837 364.678 436.837Z" fill="black"/>
<path d="M555.013 436.837H389.951C389.358 436.837 388.963 436.443 388.963 435.851C388.963 435.26 389.358 434.865 389.951 434.865H555.013C555.605 434.865 556 435.26 556 435.851C556 436.443 555.408 436.837 555.013 436.837Z" fill="black"/>
<path d="M56.0736 447.487C55.4813 447.487 55.0864 447.093 55.0864 446.501V436.246C55.0864 435.654 55.4813 435.26 56.0736 435.26C56.666 435.26 57.0609 435.654 57.0609 436.246V446.501C57.0609 447.093 56.666 447.487 56.0736 447.487Z" fill="black"/>
<path d="M110.568 447.487C109.976 447.487 109.581 447.093 109.581 446.501V436.246C109.581 435.654 109.976 435.26 110.568 435.26C111.161 435.26 111.555 435.654 111.555 436.246V446.501C111.555 447.093 111.161 447.487 110.568 447.487Z" fill="black"/>
<path d="M165.062 447.487C164.47 447.487 164.075 447.093 164.075 446.501V436.246C164.075 435.654 164.47 435.26 165.062 435.26C165.655 435.26 166.05 435.654 166.05 436.246V446.501C166.05 447.093 165.457 447.487 165.062 447.487Z" fill="black"/>
<path d="M219.557 447.487C218.965 447.487 218.57 447.093 218.57 446.501V436.246C218.57 435.654 218.965 435.26 219.557 435.26C220.149 435.26 220.544 435.654 220.544 436.246V446.501C220.544 447.093 219.952 447.487 219.557 447.487Z" fill="black"/>
<path d="M273.854 447.487C273.262 447.487 272.867 447.093 272.867 446.501V436.246C272.867 435.654 273.262 435.26 273.854 435.26C274.446 435.26 274.841 435.654 274.841 436.246V446.501C274.841 447.093 274.446 447.487 273.854 447.487Z" fill="black"/>
<path d="M328.348 447.487C327.756 447.487 327.361 447.093 327.361 446.501V436.246C327.361 435.654 327.756 435.26 328.348 435.26C328.94 435.26 329.335 435.654 329.335 436.246V446.501C329.335 447.093 328.94 447.487 328.348 447.487Z" fill="black"/>
<path d="M463.202 447.487C462.61 447.487 462.215 447.093 462.215 446.501V436.246C462.215 435.654 462.61 435.26 463.202 435.26C463.794 435.26 464.189 435.654 464.189 436.246V446.501C464.189 447.093 463.794 447.487 463.202 447.487Z" fill="black"/>
<path d="M517.696 447.487C517.104 447.487 516.709 447.093 516.709 446.501V436.246C516.709 435.654 517.104 435.26 517.696 435.26C518.289 435.26 518.683 435.654 518.683 436.246V446.501C518.683 447.093 518.289 447.487 517.696 447.487Z" fill="black"/>
<path d="M426.675 368.6C426.28 368.6 425.885 368.403 425.687 368.009L423.91 362.684C423.713 362.092 424.108 361.698 424.503 361.5C425.095 361.303 425.49 361.698 425.687 362.092L427.464 367.417C427.662 368.009 427.267 368.403 426.872 368.6H426.675Z" fill="black"/>
<path d="M397.848 334.679C397.651 334.679 397.453 334.679 397.256 334.481L392.714 330.931C392.32 330.537 392.122 329.945 392.517 329.551C392.912 329.156 393.504 329.156 393.899 329.354L398.44 332.904C398.835 333.298 399.033 333.89 398.638 334.284C398.44 334.481 398.243 334.679 397.848 334.679Z" fill="black"/>
<path d="M309.196 399.958C308.998 399.958 308.801 399.958 308.801 399.76C308.406 399.563 308.209 398.972 308.406 398.38L314.724 385.758C314.922 385.364 315.514 385.166 316.106 385.363C316.501 385.561 316.699 386.152 316.501 386.744L310.183 399.366C309.788 399.76 309.393 399.958 309.196 399.958Z" fill="black"/>
<path d="M251.74 52.2629C251.542 52.2629 251.147 52.0657 250.95 51.8685L243.842 43.7826C243.447 43.3881 243.447 42.7965 243.842 42.402C244.237 42.0076 244.829 42.0076 245.224 42.402L252.332 50.488C252.727 50.8824 252.727 51.474 252.332 51.8685C252.135 52.2629 251.937 52.2629 251.74 52.2629Z" fill="black"/>
<path d="M267.93 50.4878C267.733 50.4878 267.733 50.4878 267.93 50.4878C267.338 50.4878 266.943 49.8962 266.943 49.5018L267.93 39.6409C267.93 39.0492 268.522 38.6548 268.917 38.6548C269.51 38.6548 269.905 39.2464 269.905 39.6409L268.917 49.5018C268.72 50.0934 268.325 50.4878 267.93 50.4878Z" fill="black"/>
<path d="M26.4572 371.361C26.0623 371.361 25.6674 371.164 25.47 370.572C25.2726 369.981 25.6674 369.586 26.0623 369.389L32.3805 367.614C32.9728 367.417 33.3677 367.811 33.5652 368.206C33.7626 368.797 33.3677 369.192 32.9728 369.389L26.6547 371.164C26.6547 371.361 26.6547 371.361 26.4572 371.361Z" fill="black"/>
<defs>
<linearGradient id="paint0_linear" x1="465.918" y1="151.257" x2="465.918" y2="499.335" gradientUnits="userSpaceOnUse">
<stop offset="0.00540541" stop-color="#485FE5"/>
<stop offset="1" stop-color="white"/>
</linearGradient>
<linearGradient id="paint1_linear" x1="237.09" y1="55.6725" x2="237.09" y2="597.024" gradientUnits="userSpaceOnUse">
<stop offset="0.00540541" stop-color="#485FE5"/>
<stop offset="1" stop-color="white"/>
</linearGradient>
<linearGradient id="paint2_linear" x1="84.2473" y1="355.061" x2="84.2473" y2="432.308" gradientUnits="userSpaceOnUse">
<stop offset="0.00540541" stop-color="#485FE5"/>
<stop offset="1" stop-color="white"/>
</linearGradient>
<linearGradient id="paint3_linear" x1="79.9988" y1="334.581" x2="79.9988" y2="353.195" gradientUnits="userSpaceOnUse">
<stop offset="0.00540541" stop-color="#485FE5"/>
<stop offset="1" stop-color="white"/>
</linearGradient>
</defs>
</svg>
