<svg width="551" height="395" viewBox="0 0 551 395" fill="none" xmlns="http://www.w3.org/2000/svg">
<path d="M495.567 316.574H239.111L280.61 255.775C308.821 235.509 340.528 221.532 377.597 221.532C399.046 221.532 419.329 225.492 438.447 232.48L495.567 316.574Z" fill="url(#paint0_linear_493:2632)"/>
<path d="M495.567 316.574H239.111L280.61 255.775C308.821 235.509 340.528 221.532 377.597 221.532C399.046 221.532 419.329 225.492 438.447 232.48L495.567 316.574Z" fill="url(#paint1_linear_493:2632)"/>
<path d="M388.087 158.869C388.087 158.869 361.276 161.432 346.588 159.102L346.821 158.869L289.469 74.7758C338.662 87.5878 388.087 99.9339 437.28 87.1219L388.087 158.869Z" fill="url(#paint2_linear_493:2632)"/>
<path d="M388.087 158.869C388.087 158.869 361.276 161.432 346.588 159.102L346.821 158.869L289.469 74.7758C338.662 87.5878 388.087 99.9339 437.28 87.1219L388.087 158.869Z" fill="url(#paint3_linear_493:2632)"/>
<path d="M495.566 317.738H239.111C238.645 317.738 238.179 317.505 238.179 317.04C237.946 316.574 237.946 316.108 238.179 315.875L345.424 158.869L238.179 1.86357C237.946 1.39768 237.946 0.931784 238.179 0.698838C238.412 0.232946 238.878 0 239.111 0H495.566C496.033 0 496.499 0.232946 496.499 0.698838C496.732 1.16473 496.732 1.63062 496.499 1.86357L389.254 158.869L496.499 315.875C496.732 316.341 496.732 316.807 496.499 317.04C496.499 317.505 496.033 317.738 495.566 317.738ZM241.21 315.409H493.468L437.281 233.179L386.923 159.568C386.69 159.102 386.69 158.636 386.923 158.17L493.468 2.32946H241.21L347.522 158.17C347.755 158.636 347.755 159.102 347.522 159.568L347.289 159.801L241.21 315.409Z" fill="black"/>
<path d="M369.904 133.478V202.197C369.904 205.458 375.033 205.458 375.033 202.197V133.478C374.8 130.217 369.904 130.217 369.904 133.478Z" fill="#485FE5"/>
<path d="M358.014 152.813V221.532C358.014 224.793 363.143 224.793 363.143 221.532V152.813C362.91 149.551 358.014 149.551 358.014 152.813Z" fill="#485FE5"/>
<path d="M304.859 63.5943C304.626 63.5943 304.393 63.5943 304.16 63.3614L295.533 55.6741C295.067 55.2082 295.067 54.5094 295.533 54.0435C296 53.5776 296.699 53.5776 297.165 54.0435L305.792 61.7307C306.258 62.1966 306.258 62.8955 305.792 63.3614C305.325 63.5943 305.092 63.5943 304.859 63.5943Z" fill="black"/>
<path d="M366.175 32.6124C365.942 32.6124 365.709 32.6124 365.476 32.3794C365.009 31.9135 364.776 31.2147 365.242 30.7488L372.936 20.7321C373.402 20.2662 374.102 20.0333 374.568 20.4992C375.034 20.9651 375.268 21.6639 374.801 22.1298L367.108 32.1465C366.874 32.3794 366.408 32.6124 366.175 32.6124Z" fill="black"/>
<path d="M397.184 76.8723C396.717 76.8723 396.484 76.6393 396.251 76.4064L390.889 68.7192C390.423 68.2533 390.656 67.5544 391.122 67.0885C391.588 66.6227 392.288 66.8556 392.754 67.3215L398.116 75.0087C398.583 75.4746 398.349 76.1735 397.883 76.6393C397.65 76.8723 397.417 76.8723 397.184 76.8723Z" fill="black"/>
<path d="M408.14 253.212C407.907 253.212 407.674 253.212 407.44 252.979C406.974 252.513 406.741 251.815 407.207 251.349L414.901 240.4C415.367 239.934 416.067 239.701 416.533 240.167C416.999 240.633 417.232 241.332 416.766 241.798L409.072 252.746C408.839 252.979 408.606 253.212 408.14 253.212Z" fill="white"/>
<path d="M447.073 289.552C446.607 289.552 446.374 289.319 446.141 289.086L439.846 280.467C439.38 280.001 439.613 279.302 440.079 278.836C440.545 278.371 441.245 278.604 441.711 279.069L448.006 287.688C448.472 288.154 448.239 288.853 447.773 289.319C447.54 289.552 447.306 289.552 447.073 289.552Z" fill="white"/>
<path d="M348.221 248.553C347.755 248.553 347.289 248.32 347.056 247.855L344.025 239.236C343.792 238.537 344.025 238.071 344.724 237.838C345.424 237.605 345.89 237.838 346.123 238.537L349.154 247.156C349.387 247.855 349.154 248.32 348.455 248.553C348.455 248.553 348.455 248.553 348.221 248.553Z" fill="white"/>
<path d="M436.814 40.2996C436.581 40.2996 436.114 40.0667 435.881 39.8338C435.415 39.3679 435.648 38.669 436.114 38.2031L446.139 30.5159C446.606 30.05 447.305 30.283 447.771 30.7489C448.238 31.2148 448.004 31.9136 447.538 32.3795L437.513 40.0667C437.28 40.2996 437.047 40.2996 436.814 40.2996Z" fill="black"/>
<path d="M268.951 386.224C268.951 386.224 312.781 385.293 357.078 380.634C401.375 375.975 445.905 368.055 446.838 338.703C448.703 280.001 371.067 233.878 206.236 242.031C41.4053 250.184 -8.95323 288.387 2.47069 341.732C12.962 390.65 51.8966 387.156 199.475 389.486C199.475 389.486 263.589 398.338 266.153 389.253C268.251 382.031 245.171 377.605 245.171 377.605" fill="white"/>
<path d="M246.104 394.378C228.618 394.378 206.003 391.582 199.475 390.65C188.285 390.417 177.793 390.417 167.768 390.184C47.7006 388.554 11.3306 388.088 1.5387 341.965C-2.19156 324.261 0.839273 308.653 10.8643 295.608C35.111 264.161 98.9917 246.224 206.003 240.866C311.616 235.741 389.719 252.513 426.322 288.387C441.243 303.063 448.47 320.068 448.004 338.936C447.071 368.753 403.94 377.14 357.312 382.031C313.482 386.457 269.651 387.622 269.185 387.622C268.485 387.622 268.019 387.156 268.019 386.457C268.019 385.759 268.485 385.293 269.185 385.293C269.651 385.293 313.482 384.128 357.079 379.702C402.775 375.043 444.973 366.89 445.906 338.936C446.372 320.767 439.378 304.46 424.923 290.251C388.786 254.843 311.15 238.304 206.237 243.429C99.9242 248.786 36.5099 266.257 12.7295 297.239C2.93754 309.818 0.139848 324.261 3.87011 341.732C13.4289 385.991 46.0686 386.457 168.001 388.088C178.027 388.321 188.518 388.321 199.942 388.554C231.183 392.747 264.056 394.145 265.454 389.02C265.688 388.321 265.454 387.855 265.221 387.156C262.657 382.963 250.067 379.702 245.404 379.003C244.705 378.77 244.472 378.304 244.472 377.605C244.472 376.907 245.171 376.441 245.871 376.674C247.736 376.907 263.589 380.168 267.086 385.991C267.786 387.156 268.019 388.554 267.553 389.719C266.154 393.213 257.294 394.378 246.104 394.378Z" fill="black"/>
<path d="M206.001 242.031C40.9376 250.184 -8.95461 288.387 2.4693 341.732C12.2612 387.622 47.2324 387.389 173.362 389.02C179.89 367.589 186.651 346.158 192.479 324.727C192.479 324.727 230.248 333.113 231.181 333.579C231.181 333.579 258.458 323.562 290.632 319.602C299.025 337.539 307.884 363.629 305.553 384.827C320.707 383.895 338.659 382.73 357.077 380.867C401.374 376.441 445.904 368.288 446.836 338.936C448.468 280.001 370.832 233.878 206.001 242.031Z" fill="black"/>
<path d="M271.985 367.589C271.985 367.589 271.751 367.589 271.985 367.589C271.285 367.589 270.819 366.89 270.819 366.191C271.751 358.504 264.291 349.885 250.769 343.13C216.73 325.892 142.125 317.971 92.9322 312.847L89.9014 312.614C89.202 312.614 88.7357 311.915 88.9688 311.449C88.9688 310.75 89.6683 310.284 90.1346 310.517L93.1654 310.75C142.591 315.875 217.43 323.795 251.934 341.266C266.622 348.72 274.316 358.038 273.15 366.89C272.917 367.123 272.451 367.589 271.985 367.589Z" fill="black"/>
<path d="M267.322 387.855C266.855 387.855 266.389 387.622 266.156 387.156C265.923 386.69 266.156 385.991 266.622 385.525C266.622 385.525 270.819 383.429 270.586 380.401C270.353 377.838 267.322 372.713 248.437 365.725C247.738 365.492 247.505 364.793 247.738 364.327C247.971 363.629 248.67 363.396 249.137 363.629C264.757 369.219 272.684 374.577 272.917 380.168C273.15 384.827 267.788 387.389 267.555 387.389C267.788 387.855 267.555 387.855 267.322 387.855Z" fill="black"/>
<path d="M273.149 378.537C272.682 378.537 272.216 378.304 272.216 377.838C271.983 377.372 272.216 376.674 272.682 376.208C272.682 376.208 275.247 374.81 275.014 372.714C274.781 370.151 271.283 364.56 249.601 356.174C248.902 355.942 248.669 355.243 248.902 354.777C249.135 354.078 249.834 353.845 250.301 354.078C268.019 360.833 277.112 366.89 277.345 372.714C277.578 376.441 273.848 378.537 273.615 378.537C273.615 378.537 273.382 378.537 273.149 378.537Z" fill="black"/>
<path d="M229.784 334.743C229.318 334.743 228.852 334.511 228.619 334.045C228.386 333.346 228.619 332.88 229.318 332.647C274.547 316.108 343.091 310.983 387.155 314.477C387.854 314.477 388.32 315.176 388.32 315.642C388.32 316.341 387.621 316.807 387.155 316.807C343.324 313.312 275.247 318.437 230.251 334.743C230.018 334.743 230.018 334.743 229.784 334.743Z" fill="black"/>
<path d="M199.009 258.57C189.217 256.241 186.885 263.695 187.818 266.723C188.751 269.751 191.315 271.848 199.941 271.382" fill="white"/>
<path d="M198.076 272.547C191.548 272.547 188.284 270.916 186.885 266.956C186.186 264.86 186.652 261.831 188.75 259.502C190.382 257.638 193.413 256.008 199.242 257.405C199.941 257.638 200.174 258.104 200.174 258.803C199.941 259.502 199.475 259.735 198.775 259.735C195.045 258.803 192.247 259.269 190.615 261.132C188.983 262.763 188.75 265.093 189.217 266.257C189.916 268.354 191.315 270.45 200.174 269.984C200.874 269.984 201.34 270.45 201.34 271.149C201.34 271.848 200.874 272.314 200.174 272.314C199.475 272.547 198.775 272.547 198.076 272.547Z" fill="black"/>
<path d="M251.93 257.638C261.722 255.309 264.054 262.763 263.121 265.791C262.189 268.819 258.691 269.751 249.832 269.285" fill="white"/>
<path d="M253.564 270.45C252.398 270.45 251.233 270.45 249.834 270.45C249.134 270.45 248.668 269.984 248.668 269.286C248.668 268.587 249.134 268.121 249.834 268.121C259.159 268.587 261.258 267.422 261.957 265.326C262.423 264.161 262.19 261.831 260.558 260.201C258.693 258.337 255.895 257.871 252.165 258.57C251.466 258.803 250.999 258.337 250.766 257.638C250.533 256.94 250.999 256.474 251.699 256.241C257.527 254.843 260.791 256.707 262.423 258.57C264.522 260.9 264.988 263.928 264.288 266.024C263.123 269.519 259.626 270.45 253.564 270.45Z" fill="black"/>
<path d="M225.122 286.757C239.543 286.757 251.233 275.076 251.233 260.667C251.233 246.258 239.543 234.577 225.122 234.577C210.7 234.577 199.01 246.258 199.01 260.667C199.01 275.076 210.7 286.757 225.122 286.757Z" fill="white"/>
<path d="M225.122 288.154C209.968 288.154 197.611 275.808 197.611 260.667C197.611 245.525 209.968 233.179 225.122 233.179C240.276 233.179 252.633 245.525 252.633 260.667C252.633 275.808 240.276 288.154 225.122 288.154ZM225.122 235.741C211.367 235.741 199.943 246.923 199.943 260.9C199.943 274.876 211.134 286.058 225.122 286.058C239.11 286.058 250.301 274.876 250.301 260.9C250.301 246.923 238.877 235.741 225.122 235.741Z" fill="black"/>
<path d="M208.801 251.349C213.697 250.417 237.011 249.718 241.907 249.951C241.907 249.951 244.938 254.843 251.233 256.94C249.135 244.593 237.944 234.577 225.121 234.577C211.366 234.577 199.242 245.059 198.543 262.763C206.47 253.445 208.801 251.349 208.801 251.349Z" fill="black"/>
<path d="M224.885 268.354L225.585 281.865L220.223 277.905" fill="white"/>
<path d="M225.587 283.03C225.354 283.03 225.121 283.03 224.888 282.797L219.759 278.604C219.293 278.138 219.059 277.439 219.526 276.973C219.992 276.507 220.691 276.274 221.158 276.74L224.422 279.302L223.955 268.121C223.955 267.422 224.422 266.956 225.121 266.956C225.82 266.956 226.287 267.422 226.287 268.121L226.753 281.632C226.753 282.098 226.52 282.564 226.054 282.797C225.82 283.03 225.587 283.03 225.587 283.03Z" fill="black"/>
<path d="M185.954 325.426C143.989 314.244 93.8633 308.421 93.8633 308.421L185.954 325.426Z" fill="black"/>
<path d="M185.953 326.59H185.72C144.221 315.409 94.3286 309.585 93.8624 309.585C93.1629 309.585 92.6966 308.886 92.9298 308.188C92.9298 307.489 93.6292 307.023 94.3286 307.256C94.7949 307.256 144.92 313.312 186.653 324.261C187.352 324.494 187.585 324.96 187.585 325.659C186.886 326.124 186.419 326.59 185.953 326.59Z" fill="white"/>
<path d="M294.596 320.301C310.916 317.505 365.471 309.818 376.661 309.818L294.596 320.301Z" fill="black"/>
<path d="M294.597 321.465C294.131 321.465 293.432 321 293.432 320.534C293.432 319.835 293.665 319.369 294.364 319.136C310.684 316.341 364.773 308.653 376.43 308.653C377.129 308.653 377.596 309.119 377.596 309.818C377.596 310.517 377.129 310.983 376.43 310.983C365.239 310.983 310.684 318.903 294.597 321.465C294.83 321.465 294.83 321.465 294.597 321.465Z" fill="white"/>
<path d="M240.984 127.94L206.912 87.4771L166.415 121.52L200.487 161.983L240.984 127.94Z" fill="white"/>
<path d="M200.644 163.062C200.411 163.062 199.944 162.829 199.711 162.596L165.673 122.064C165.206 121.598 165.206 120.899 165.906 120.433L206.239 86.4231C206.705 85.9572 207.405 86.1902 207.871 86.6561L241.91 126.956C242.376 127.422 242.376 128.12 241.677 128.586L201.343 162.829C201.11 162.829 200.877 163.062 200.644 163.062ZM168.237 121.598L200.644 160.267L239.345 127.888L206.705 88.9855L168.237 121.598Z" fill="black"/>
<path d="M549.005 111.123L502.775 56.2216L447.828 102.413L494.058 157.314L549.005 111.123Z" fill="white"/>
<path d="M493.933 158.404C493.467 158.404 493.234 158.171 493.001 157.938L446.839 102.962C446.372 102.497 446.372 101.798 447.072 101.332L502.093 55.2085C502.326 54.9756 502.559 54.9756 503.026 54.9756C503.259 54.9756 503.725 55.2085 503.725 55.4415L549.887 110.417C550.353 110.883 550.353 111.581 549.654 112.047L494.633 158.171C494.399 158.404 494.166 158.404 493.933 158.404ZM449.403 102.497L494.166 155.608L547.322 110.883L502.559 57.7709L449.403 102.497Z" fill="black"/>
<path d="M285.582 155.26L258.527 170.867L274.148 197.899L301.202 182.292L285.582 155.26Z" fill="white"/>
<path d="M274.315 199.169C273.849 199.169 273.616 198.936 273.383 198.703L257.762 171.682C257.529 171.216 257.529 170.517 258.229 170.051L285.273 154.444C285.739 154.211 286.439 154.211 286.905 154.91L302.526 181.931C302.759 182.397 302.759 183.096 302.059 183.562L275.015 199.169C274.549 199.169 274.315 199.169 274.315 199.169ZM260.094 171.449L274.549 196.374L299.495 181.931L285.04 157.006L260.094 171.449Z" fill="black"/>
<path d="M175.697 133.478C175.464 133.478 174.998 133.245 174.764 133.012C174.298 132.547 174.298 131.848 174.998 131.382L213.932 98.0705C214.398 97.6047 215.098 97.6047 215.564 98.3035C216.03 98.7694 216.03 99.4682 215.331 99.9341L176.63 133.245C176.396 133.478 175.93 133.478 175.697 133.478Z" fill="black"/>
<path d="M192.948 118.337C192.249 118.337 191.782 117.871 191.782 117.172L190.15 101.331C190.15 100.633 190.617 100.167 191.083 100.167C191.782 100.167 192.249 100.633 192.249 101.099L193.881 116.939C194.114 117.871 193.647 118.337 192.948 118.337Z" fill="black"/>
<path d="M263.59 180.999C263.123 180.999 262.89 180.766 262.657 180.533C262.424 180.067 262.424 179.368 263.123 178.902L289.935 163.062C290.401 162.829 291.1 162.829 291.567 163.528C291.8 163.994 291.8 164.693 291.1 165.159L264.289 180.999C264.056 180.766 263.823 180.999 263.59 180.999Z" fill="black"/>
<path d="M275.947 173.545C275.481 173.545 275.014 173.079 274.781 172.613L272.916 162.83C272.683 162.131 273.149 161.665 273.849 161.432C274.548 161.199 275.014 161.665 275.248 162.364L277.113 172.147C277.346 172.846 276.88 173.312 275.947 173.545C276.18 173.545 276.18 173.545 275.947 173.545Z" fill="black"/>
<path d="M538.232 120.666C537.999 120.666 537.532 120.433 537.299 120.2L492.303 65.9239C491.837 65.458 492.07 64.7591 492.536 64.2933C493.002 63.8274 493.702 64.0603 494.168 64.5262L539.164 118.803C539.631 119.269 539.397 119.967 538.931 120.433C538.931 120.666 538.465 120.666 538.232 120.666Z" fill="black"/>
<path d="M512.586 89.2185C512.119 89.2185 511.653 88.7527 511.42 88.2868C511.187 87.5879 511.653 87.122 512.353 86.8891L525.642 83.8608C526.341 83.6278 526.807 84.0937 527.04 84.7926C527.274 85.4914 526.807 85.9573 526.108 86.1902L512.819 89.2185C512.819 89.2185 512.819 89.2185 512.586 89.2185Z" fill="black"/>
<defs>
<linearGradient id="paint0_linear_493:2632" x1="367.339" y1="318.559" x2="367.339" y2="-156.68" gradientUnits="userSpaceOnUse">
<stop offset="0.00540541" stop-color="#FFD629"/>
<stop offset="1" stop-color="white"/>
</linearGradient>
<linearGradient id="paint1_linear_493:2632" x1="367.184" y1="172.321" x2="367.184" y2="436.981" gradientUnits="userSpaceOnUse">
<stop offset="0.00540541" stop-color="#485FE5"/>
<stop offset="1" stop-color="white"/>
</linearGradient>
<linearGradient id="paint2_linear_493:2632" x1="363.111" y1="318.558" x2="363.111" y2="-156.681" gradientUnits="userSpaceOnUse">
<stop offset="0.00540541" stop-color="#FFD629"/>
<stop offset="1" stop-color="white"/>
</linearGradient>
<linearGradient id="paint3_linear_493:2632" x1="363.285" y1="30.6067" x2="363.285" y2="268.152" gradientUnits="userSpaceOnUse">
<stop offset="0.00540541" stop-color="#485FE5"/>
<stop offset="1" stop-color="white"/>
</linearGradient>
</defs>
</svg>
