<svg width="523" height="482" viewBox="0 0 523 482" fill="none" xmlns="http://www.w3.org/2000/svg">
<g id="illustrations" clip-path="url(#clip0_493_2271)">
<g id="Cup 1">
<path id="Vector" d="M174.275 383.586H123.067C85.7166 383.586 55.3086 353.201 55.3086 315.879C55.3086 278.557 85.7166 248.172 123.067 248.172H174.304C211.655 248.172 242.063 278.557 242.063 315.879C242.063 353.201 211.655 383.586 174.275 383.586ZM123.067 276.039C101.067 276.039 83.1679 293.925 83.1679 315.908C83.1679 337.892 101.067 355.777 123.067 355.777H174.304C196.304 355.777 214.204 337.892 214.204 315.908C214.204 293.925 196.275 276.039 174.275 276.039H123.067Z" fill="white"/>
<path id="Vector_2" d="M174.275 384.581H123.067C85.1599 384.581 54.3125 353.757 54.3125 315.879C54.3125 278 85.1599 247.177 123.067 247.177H174.304C212.211 247.177 243.059 278 243.059 315.879C243.059 353.757 212.211 384.581 174.275 384.581ZM123.067 249.167C86.2438 249.167 56.3045 279.083 56.3045 315.879C56.3045 352.674 86.2438 382.591 123.067 382.591H174.304C211.128 382.591 241.067 352.674 241.067 315.879C241.067 279.083 211.128 249.167 174.304 249.167H123.067ZM174.275 356.743H123.067C100.51 356.743 82.1719 338.419 82.1719 315.879C82.1719 293.339 100.51 275.015 123.067 275.015H174.304C196.861 275.015 215.199 293.339 215.199 315.879C215.17 338.419 196.832 356.743 174.275 356.743ZM123.067 277.034C101.624 277.034 84.1639 294.481 84.1639 315.908C84.1639 337.336 101.624 354.782 123.067 354.782H174.304C195.748 354.782 213.178 337.336 213.178 315.908C213.178 294.481 195.718 277.034 174.304 277.034H123.067Z" fill="black"/>
<path id="Vector_3" d="M273.966 481.005C343.552 481.005 399.963 424.637 399.963 355.104C399.963 285.571 343.552 229.203 273.966 229.203C204.379 229.203 147.969 285.571 147.969 355.104C147.969 424.637 204.379 481.005 273.966 481.005Z" fill="white"/>
<path id="Vector_4" d="M273.964 482C203.949 482 146.971 425.065 146.971 355.104C146.971 285.143 203.949 228.208 273.964 228.208C309.44 228.208 341.312 239.654 363.723 260.466C388.067 283.065 400.957 315.791 400.957 355.104C400.957 425.065 344.008 482 273.964 482ZM273.964 230.199C205.033 230.199 148.963 286.226 148.963 355.104C148.963 423.982 205.033 480.01 273.964 480.01C342.894 480.01 398.965 423.982 398.965 355.104C398.965 279.23 349.896 230.199 273.964 230.199Z" fill="black"/>
<path id="Vector_5" d="M438.25 220.773C435.848 165.448 413.32 124.525 379.075 98.7654C350.571 77.338 313.952 66.3608 273.994 66.3608C248.449 66.3608 224.252 72.1861 202.661 82.5778C159.51 103.361 126.846 142.381 114.66 189.656C111.291 202.8 109.475 216.558 109.475 230.726C109.475 321.499 158.836 466.164 273.965 466.164C392.023 466.164 438.455 321.499 438.455 230.726C438.484 227.359 438.397 224.022 438.25 220.773Z" fill="white"/>
<path id="Vector_6" d="M273.965 467.159C208.725 467.159 169.265 421.377 147.675 382.971C118.761 331.598 108.479 270.624 108.479 230.725C108.479 216.733 110.236 202.829 113.693 189.393C125.85 142.176 158.133 102.893 202.222 81.6702C224.691 70.8394 248.83 65.3655 273.965 65.3655C314.772 65.3655 351.303 76.6354 379.66 97.9457C416.338 125.55 436.961 167.995 439.246 220.714C439.393 223.993 439.451 227.359 439.451 230.725C439.451 283.065 425.214 339.97 401.339 382.971C380.071 421.377 340.64 467.159 273.965 467.159ZM273.965 67.356C249.123 67.356 225.277 72.7714 203.071 83.4558C159.51 104.444 127.608 143.23 115.597 189.89C112.17 203.151 110.441 216.88 110.441 230.725C110.441 325.275 162.41 465.168 273.936 465.168C386.72 465.168 437.43 328.056 437.43 230.725C437.43 227.388 437.371 224.051 437.225 220.802C434.969 168.697 414.638 126.75 378.43 99.5264C350.454 78.4795 314.333 67.356 273.965 67.356Z" fill="black"/>
<path id="Vector_7" d="M436.522 256.076C424.335 334.818 356.195 395.09 273.965 395.09C188.102 395.09 117.648 329.344 110.148 245.537C122.687 167.175 190.651 107.313 272.588 107.313C358.92 107.313 429.725 158.423 436.522 256.076Z" fill="url(#paint0_linear_493_2271)"/>
</g>
<g id="Doc 1">
<path id="Vector_8" d="M267.022 1.99053H166.98C166.424 1.99053 165.984 1.55144 165.984 0.995263C165.984 0.439087 166.424 0 166.98 0H267.022C267.579 0 268.018 0.439087 268.018 0.995263C268.018 1.55144 267.579 1.99053 267.022 1.99053Z" fill="black"/>
<path id="Vector_9" d="M348.432 29.0384H166.98C166.424 29.0384 165.984 28.5993 165.984 28.0431C165.984 27.4869 166.424 27.0479 166.98 27.0479H348.432C348.989 27.0479 349.428 27.4869 349.428 28.0431C349.428 28.5993 348.989 29.0384 348.432 29.0384Z" fill="black"/>
<path id="Vector_10" d="M242.18 56.0862H166.98C166.424 56.0862 165.984 55.6471 165.984 55.091C165.984 54.5348 166.424 54.0957 166.98 54.0957H242.151C242.707 54.0957 243.147 54.5348 243.147 55.091C243.176 55.6471 242.737 56.0862 242.18 56.0862Z" fill="black"/>
<path id="Vector_11" d="M263.477 133.717H188.307C187.75 133.717 187.311 133.278 187.311 132.721C187.311 132.165 187.75 131.726 188.307 131.726H263.477C264.034 131.726 264.473 132.165 264.473 132.721C264.473 133.278 264.034 133.717 263.477 133.717Z" fill="white"/>
<path id="Vector_12" d="M263.477 160.764H188.307C187.75 160.764 187.311 160.325 187.311 159.769C187.311 159.213 187.75 158.774 188.307 158.774H263.477C264.034 158.774 264.473 159.213 264.473 159.769C264.473 160.296 264.034 160.764 263.477 160.764Z" fill="white"/>
<path id="Vector_13" d="M233.684 340.965H192.027C191.471 340.965 191.031 340.526 191.031 339.97C191.031 339.414 191.471 338.975 192.027 338.975H233.684C234.241 338.975 234.68 339.414 234.68 339.97C234.68 340.526 234.241 340.965 233.684 340.965Z" fill="white"/>
<path id="Vector_14" d="M362.465 340.965H288.994C288.437 340.965 287.998 340.526 287.998 339.97C287.998 339.414 288.437 338.975 288.994 338.975H362.465C363.022 338.975 363.461 339.414 363.461 339.97C363.461 340.526 363.022 340.965 362.465 340.965Z" fill="white"/>
<path id="Vector_15" d="M213.619 332.038C213.355 332.038 213.121 331.95 212.916 331.745L201.93 320.768C201.549 320.387 201.549 319.743 201.93 319.363C202.311 318.982 202.955 318.982 203.336 319.363L214.322 330.34C214.703 330.72 214.703 331.364 214.322 331.745C214.146 331.95 213.882 332.038 213.619 332.038Z" fill="white"/>
<path id="Vector_16" d="M202.633 332.038C202.37 332.038 202.135 331.95 201.93 331.745C201.549 331.364 201.549 330.72 201.93 330.34L212.916 319.363C213.297 318.982 213.941 318.982 214.322 319.363C214.703 319.743 214.703 320.387 214.322 320.768L203.336 331.745C203.161 331.95 202.897 332.038 202.633 332.038Z" fill="white"/>
</g>
<g id="Screen 1">
<path id="Vector_17" d="M134.213 26.7506L0 92.5513L50.727 195.861L184.94 130.06L134.213 26.7506Z" fill="black"/>
<path id="Vector_18" d="M126.504 158.72L109.172 167.217L121.147 191.606L138.479 183.108L126.504 158.72Z" fill="black"/>
<path id="Vector_19" d="M132.734 39.6142L11.0664 99.2642L48.7342 175.978L170.402 116.328L132.734 39.6142Z" fill="white"/>
<g id="Vector_20">
<path d="M80.9413 134.097L62.3098 143.201L51.5879 121.393L70.2194 112.26L80.9413 134.097Z" fill="url(#paint1_linear_493_2271)"/>
<path d="M80.9413 134.097L62.3098 143.201L51.5879 121.393L70.2194 112.26L80.9413 134.097Z" fill="url(#paint2_linear_493_2271)"/>
</g>
<g id="Vector_21">
<path d="M107.57 121.012L88.968 130.145L78.2461 108.337L96.8776 99.2043L107.57 121.012Z" fill="url(#paint3_linear_493_2271)"/>
<path d="M107.57 121.012L88.968 130.145L78.2461 108.337L96.8776 99.2043L107.57 121.012Z" fill="url(#paint4_linear_493_2271)"/>
</g>
<g id="Vector_22">
<path d="M134.228 107.957L115.596 117.09L98.6055 82.4311L117.208 73.2981L134.228 107.957Z" fill="url(#paint5_linear_493_2271)"/>
<path d="M134.228 107.957L115.596 117.09L98.6055 82.4311L117.208 73.2981L134.228 107.957Z" fill="url(#paint6_linear_493_2271)"/>
</g>
</g>
<g id="Keyboard 1">
<path id="Vector_23" d="M193.692 120.343L69.6035 223.693L105.618 266.868L229.706 163.518L193.692 120.343Z" fill="white"/>
<path id="Vector_24" d="M105.609 267.872C105.316 267.872 105.052 267.755 104.847 267.521L68.8148 224.315C68.4633 223.905 68.5219 223.261 68.932 222.91L193.025 119.578C193.464 119.227 194.079 119.285 194.431 119.695L230.434 162.872C230.61 163.077 230.698 163.34 230.669 163.604C230.639 163.867 230.522 164.101 230.317 164.277L106.224 267.609C106.049 267.784 105.843 267.872 105.609 267.872ZM70.9826 223.817L105.726 265.472L228.266 163.399L193.552 121.744L70.9826 223.817Z" fill="black"/>
<path id="Vector_25" d="M183.445 185.353L177.645 178.386C177.293 177.976 176.649 177.918 176.238 178.269L127.785 218.606C127.58 218.782 127.463 219.016 127.433 219.28C127.404 219.543 127.492 219.807 127.668 220.011L133.468 226.978C133.673 227.212 133.937 227.33 134.23 227.33C134.464 227.33 134.669 227.242 134.874 227.095L183.298 186.758C183.504 186.582 183.621 186.348 183.65 186.085C183.679 185.821 183.591 185.558 183.445 185.353Z" fill="black"/>
<path id="Vector_26" d="M108.393 207.571C108.1 207.571 107.836 207.454 107.631 207.22C107.28 206.81 107.338 206.166 107.748 205.815L115.98 198.965C116.39 198.614 117.035 198.672 117.386 199.082C117.738 199.492 117.679 200.136 117.269 200.487L109.037 207.337C108.862 207.512 108.627 207.571 108.393 207.571Z" fill="black"/>
<path id="Vector_27" d="M113.635 213.864C113.342 213.864 113.078 213.747 112.873 213.513C112.522 213.103 112.58 212.459 112.991 212.108L121.222 205.258C121.662 204.907 122.277 204.966 122.629 205.375C122.98 205.785 122.922 206.429 122.511 206.78L114.25 213.63C114.074 213.777 113.84 213.864 113.635 213.864Z" fill="black"/>
</g>
<g id="Pen 1">
<path id="Vector_28" d="M399.23 319.216H344.507C344.127 319.216 343.775 319.011 343.629 318.66C343.453 318.338 343.482 317.928 343.717 317.606L450.115 172.151L450.935 172.737L450.115 172.151C458.581 160.589 501.264 139.717 503.08 138.839C503.432 138.663 503.813 138.722 504.135 138.927C504.428 139.161 504.574 139.542 504.516 139.893C504.164 141.854 495.844 187.841 487.408 199.375L400.05 318.777C399.845 319.04 399.552 319.216 399.23 319.216ZM346.5 317.196H398.732L485.796 198.204C493.003 188.339 500.473 150.577 502.172 141.503C493.852 145.66 458.962 163.457 451.756 173.322L346.5 317.196Z" fill="black"/>
<path id="Vector_29" d="M463.15 217.172C465.523 218.46 467.896 219.807 470.239 221.153C475.688 213.689 481.137 206.254 486.586 198.789C494.993 187.314 503.518 139.717 503.518 139.717C503.518 139.717 459.342 161.291 450.934 172.766C444.108 182.075 437.312 191.383 430.486 200.721C440.886 206.985 452.633 211.464 463.15 217.172Z" fill="white"/>
<path id="Vector_30" d="M470.242 222.149C470.066 222.149 469.919 222.119 469.744 222.031L468.015 221.065C466.228 220.07 464.471 219.046 462.654 218.08C458.172 215.65 453.339 213.367 448.681 211.171C442.412 208.215 435.938 205.171 429.961 201.57C429.727 201.424 429.551 201.189 429.493 200.926C429.434 200.663 429.493 200.37 429.668 200.136L450.116 172.18C458.582 160.618 501.265 139.747 503.081 138.868C503.433 138.693 503.814 138.751 504.136 138.956C504.429 139.19 504.575 139.571 504.517 139.922C504.165 141.883 495.845 187.87 487.408 199.404L471.062 221.768C470.857 222.031 470.535 222.149 470.242 222.149ZM463.621 216.323C465.437 217.319 467.224 218.314 469.011 219.338L469.978 219.865L485.797 198.233C493.004 188.368 500.474 150.607 502.173 141.532C493.853 145.689 458.963 163.487 451.757 173.351L431.953 200.399C437.578 203.707 443.671 206.576 449.56 209.327C454.247 211.552 459.08 213.835 463.621 216.323Z" fill="black"/>
<path id="Vector_31" d="M441.677 260.173C456.647 239.712 471.616 219.25 486.557 198.818C487.611 197.384 488.666 195.393 489.691 192.964L454.977 168.58C453.219 170.073 451.842 171.478 450.905 172.766C435.965 193.198 421.024 213.63 406.055 234.062C417.89 242.873 429.783 251.509 441.677 260.173Z" fill="white"/>
<path id="Vector_32" d="M441.677 261.169C441.472 261.169 441.267 261.11 441.091 260.964L435.262 256.719C425.477 249.577 415.341 242.2 405.469 234.853C405.03 234.531 404.942 233.916 405.264 233.477L450.114 172.18C451.081 170.834 452.487 169.37 454.333 167.819C454.684 167.526 455.182 167.497 455.563 167.76L490.277 192.144C490.658 192.408 490.805 192.934 490.629 193.344C489.487 195.979 488.432 197.969 487.377 199.404C476.714 213.981 466.051 228.559 455.387 243.137L442.498 260.759C442.293 261.051 442 261.169 441.677 261.169ZM407.49 233.857C417.099 241.029 426.942 248.201 436.463 255.138L441.472 258.797L453.776 241.995C464.439 227.417 475.132 212.84 485.766 198.233C486.645 197.062 487.524 195.452 488.461 193.315L455.065 169.839C453.63 171.097 452.516 172.297 451.755 173.351L407.49 233.857Z" fill="black"/>
<path id="Vector_33" d="M500.443 155.115C502.347 146.304 503.519 139.747 503.519 139.747C503.519 139.747 497.425 142.703 489.369 147.006C492.885 149.933 496.634 152.568 500.443 155.115Z" fill="black"/>
</g>
<g id="Mail 1">
<path id="Vector_34" d="M361.441 397.637L373.013 349.044L467.225 397.637H361.441Z" fill="white"/>
<path id="Vector_35" d="M361.44 398.632C361.352 398.632 361.293 398.632 361.205 398.603C360.678 398.485 360.326 397.929 360.473 397.402L372.044 348.81C372.103 348.517 372.308 348.254 372.601 348.137C372.894 348.02 373.216 348.02 373.48 348.166L467.692 396.758C468.19 397.022 468.366 397.607 468.131 398.105C467.867 398.603 467.282 398.778 466.784 398.544L373.714 350.537L362.436 397.9C362.289 398.339 361.879 398.632 361.44 398.632Z" fill="black"/>
<path id="Vector_36" d="M467.225 397.637H361.441V470.086H467.225V397.637Z" fill="white"/>
<path id="Vector_37" d="M467.225 471.111H361.441C360.885 471.111 360.445 470.671 360.445 470.115V397.666C360.445 397.11 360.885 396.671 361.441 396.671H467.225C467.781 396.671 468.221 397.11 468.221 397.666V470.115C468.221 470.642 467.781 471.111 467.225 471.111ZM362.437 469.091H466.229V398.632H362.437V469.091Z" fill="black"/>
<path id="Vector_38" d="M467.225 397.637L414.26 442.453L361.441 397.637L415.959 324.602H522.006L467.225 397.637Z" fill="white"/>
<path id="Vector_39" d="M414.26 443.477C414.025 443.477 413.791 443.39 413.615 443.243L360.797 398.398C360.386 398.047 360.328 397.461 360.65 397.051L415.168 324.017C415.343 323.753 415.666 323.607 415.959 323.607H522.006C522.387 323.607 522.738 323.812 522.914 324.163C523.09 324.514 523.06 324.895 522.826 325.217L468.045 398.251C467.986 398.31 467.957 398.369 467.898 398.427L414.933 443.243C414.728 443.39 414.494 443.477 414.26 443.477ZM362.789 397.49L414.26 441.165L466.492 396.963L520.014 325.597H416.457L362.789 397.49Z" fill="black"/>
<path id="Vector_40" d="M379.367 286.079L415.956 324.602H522.004L485.239 286.079H379.367Z" fill="white"/>
<path id="Vector_41" d="M522.006 325.597H415.959C415.695 325.597 415.431 325.48 415.226 325.275L378.637 286.753C378.373 286.46 378.285 286.05 378.432 285.67C378.578 285.289 378.959 285.055 379.34 285.055H485.211C485.475 285.055 485.739 285.172 485.944 285.377L522.709 323.899C522.972 324.192 523.06 324.602 522.914 324.982C522.767 325.363 522.416 325.597 522.006 325.597ZM416.398 323.607H519.691L484.831 287.075H381.713L416.398 323.607Z" fill="black"/>
<path id="Vector_42" d="M379.367 286.079L415.956 254.729H522.004L485.239 286.079H379.367Z" fill="white"/>
<path id="Vector_43" d="M485.24 287.075H379.369C378.959 287.075 378.578 286.811 378.431 286.431C378.285 286.05 378.402 285.611 378.724 285.318L415.314 253.968C415.489 253.821 415.724 253.733 415.958 253.733H522.005C522.415 253.733 522.796 253.997 522.943 254.377C523.089 254.758 522.972 255.197 522.65 255.49L485.885 286.841C485.709 286.987 485.504 287.075 485.24 287.075ZM382.064 285.084H484.859L519.281 255.724H416.31L382.064 285.084Z" fill="black"/>
<path id="Vector_44" d="M467.222 471.11C466.988 471.11 466.754 471.023 466.578 470.876C450.964 457.674 437.605 445.731 425.712 434.432C425.302 434.051 425.302 433.407 425.682 433.027C426.063 432.617 426.708 432.617 427.089 432.998C438.953 444.297 452.282 456.181 467.867 469.383C468.277 469.735 468.336 470.379 467.984 470.788C467.779 470.964 467.515 471.11 467.222 471.11Z" fill="black"/>
<path id="Vector_45" d="M361.44 471.111C361.147 471.111 360.883 470.994 360.678 470.759C360.327 470.35 360.356 469.706 360.795 469.354L402.745 433.496C403.156 433.144 403.8 433.174 404.152 433.613C404.503 434.022 404.474 434.666 404.034 435.018L362.084 470.847C361.908 471.023 361.674 471.111 361.44 471.111Z" fill="black"/>
<path id="Vector_46" d="M385.52 431.915H342.369V475.033H385.52V431.915Z" fill="black"/>
<path id="Vector_47" d="M371.84 451.381H353.355C352.799 451.381 352.359 450.942 352.359 450.386C352.359 449.829 352.799 449.39 353.355 449.39H371.84C372.397 449.39 372.836 449.829 372.836 450.386C372.836 450.942 372.397 451.381 371.84 451.381Z" fill="white"/>
<path id="Vector_48" d="M371.84 459.606H353.355C352.799 459.606 352.359 459.167 352.359 458.611C352.359 458.055 352.799 457.616 353.355 457.616H371.84C372.397 457.616 372.836 458.055 372.836 458.611C372.836 459.167 372.397 459.606 371.84 459.606Z" fill="white"/>
<path id="Vector_49" d="M444.432 386.016H400.051C399.494 386.016 399.055 385.577 399.055 385.02V380.512C399.055 379.956 399.494 379.517 400.051 379.517H444.432C444.989 379.517 445.428 379.956 445.428 380.512V385.02C445.428 385.577 444.989 386.016 444.432 386.016ZM401.047 384.025H443.436V381.508H401.047V384.025Z" fill="black"/>
<path id="Vector_50" d="M457.204 363.973H412.822V368.481H457.204V363.973Z" fill="black"/>
<path id="Vector_51" d="M472.995 307.361H428.613V311.869H472.995V307.361Z" fill="black"/>
<path id="Vector_52" d="M416.603 314.093C419.499 314.093 421.847 311.747 421.847 308.853C421.847 305.959 419.499 303.614 416.603 303.614C413.707 303.614 411.359 305.959 411.359 308.853C411.359 311.747 413.707 314.093 416.603 314.093Z" fill="black"/>
<path id="Vector_53" d="M467.225 398.632H361.441C360.885 398.632 360.445 398.193 360.445 397.637C360.445 397.08 360.885 396.641 361.441 396.641H467.225C467.781 396.641 468.221 397.08 468.221 397.637C468.221 398.193 467.781 398.632 467.225 398.632Z" fill="black"/>
</g>
<g id="Woman 1">
<g id="Head 1">
<path id="Vector_54" d="M325.64 108.776C326.343 116.68 324.878 122.271 321.802 126.106L332.7 175.752L312.399 179.996L302.878 134.302C291.072 133.277 289.343 119.519 289.343 119.519L285.096 117.178C285.096 117.178 286.414 109.625 294.353 100.082C302.262 90.5689 324.058 91.33 325.64 108.776Z" fill="white"/>
<path id="Vector_55" d="M312.37 181.021C312.165 181.021 311.989 180.962 311.813 180.845C311.579 180.699 311.432 180.464 311.374 180.201L302.029 135.239C291.541 133.834 288.875 122.739 288.407 120.193L284.569 118.085C284.188 117.88 283.983 117.47 284.071 117.031C284.13 116.709 285.536 109.098 293.562 99.4677C298.162 93.9352 307.36 91.5641 314.977 93.9059C321.715 96.0135 325.962 101.37 326.636 108.659C327.31 116.212 326.05 122.154 322.886 126.31L333.696 175.517C333.755 175.781 333.696 176.044 333.55 176.279C333.403 176.513 333.169 176.659 332.905 176.718L312.604 180.962C312.516 181.021 312.458 181.021 312.37 181.021ZM286.209 116.709L289.813 118.67C290.106 118.817 290.281 119.109 290.311 119.431C290.369 119.958 292.098 132.399 302.937 133.336C303.376 133.365 303.728 133.687 303.816 134.126L313.131 178.825L331.47 174.991L320.777 126.31C320.719 126.018 320.777 125.696 320.982 125.462C324.029 121.685 325.259 116.094 324.615 108.864C323.824 100.053 317.848 96.921 314.362 95.8379C307.477 93.701 299.187 95.8086 295.086 100.756C288.787 108.337 286.737 114.66 286.209 116.709Z" fill="black"/>
<path id="Vector_56" d="M364.632 128.155C363.811 125.374 361.732 122.768 358.773 121.246C353.646 118.583 348.871 120.836 347.904 115.041C346.762 108.162 343.92 104.561 334.4 104.824C331.88 104.883 329.595 105.498 327.281 104.444C325.963 103.829 325.142 102.366 323.824 101.634C323.766 101.604 323.678 101.546 323.619 101.517C323.033 100.756 322.447 100.024 322.096 99.7018C318.785 97.1258 316.354 96.072 313.044 94.0229C312.106 93.7595 311.169 93.5546 310.202 93.4082C304.021 93.9058 298.074 95.6622 294.734 100.112C297.459 103.624 302.497 106.727 306.862 108.688C308.913 112.435 312.399 117.939 309.411 123.354C302.615 136.234 309.265 150.636 326.431 153.856C343.364 157.017 369.172 143.845 364.632 128.155Z" fill="black"/>
</g>
<g id="Hand 2 1">
<path id="Vector_57" d="M293.123 192.818C292.918 192.642 292.596 192.525 292.39 192.525C275.458 192.905 256.885 184.914 237.17 168.814C236.789 168.492 236.232 168.521 235.851 168.873C231.311 173.117 226.799 177.391 222.288 181.635C217.425 186.202 212.591 190.798 207.728 195.364C207.523 195.569 207.406 195.833 207.406 196.125C207.406 196.418 207.553 196.681 207.758 196.857C227.473 212.986 257.998 232.13 291.863 232.13C292.039 232.13 292.215 232.13 292.39 232.13C292.947 232.13 293.386 231.691 293.386 231.135V193.52C293.416 193.257 293.299 192.993 293.123 192.818Z" fill="black"/>
<path id="Vector_58" d="M236.554 169.604C223.811 158.013 208.021 156.403 205.355 157.778C202.69 159.154 213.148 162.14 213.617 163.077C213.617 163.077 203.422 158.949 199.028 162.374C194.633 165.799 209.222 166.062 210.687 167.877C210.687 167.877 197.065 164.189 194.633 166.97C192.202 169.722 205.56 173.41 206.556 175.459C207.523 177.537 200.141 180.962 195.63 180.523C188.833 179.821 187.837 182.367 192.466 184.65C196.157 186.495 204.682 193.491 208.431 196.067L236.554 169.604Z" fill="white"/>
<path id="Vector_59" d="M208.431 197.091C208.226 197.091 208.05 197.033 207.875 196.916C206.586 196.037 204.74 194.632 202.807 193.139C199.057 190.3 194.399 186.729 192.055 185.558C188.628 183.86 188.511 182.25 188.745 181.43C189.214 179.762 191.645 179.118 195.776 179.528C198.764 179.82 203.188 178.24 205.062 176.659C205.59 176.22 205.707 175.927 205.707 175.839C205.385 175.342 202.777 174.142 201.02 173.322C196.567 171.273 193.842 169.868 193.432 168.053C193.344 167.614 193.344 166.941 193.93 166.267C194.692 165.418 196.127 165.038 197.914 164.95C197.592 164.657 197.387 164.335 197.299 163.926C197.094 163.106 197.475 162.316 198.442 161.554C200.17 160.179 202.66 159.857 205.121 160.003C204.33 159.447 203.949 158.949 203.949 158.305C203.949 157.954 204.037 157.281 204.916 156.842C207.963 155.261 224.28 157.017 237.228 168.814C237.638 169.195 237.667 169.809 237.287 170.219C236.906 170.629 236.291 170.658 235.88 170.278C223.987 159.418 209.808 157.72 206.351 158.422C207.347 159.066 209.544 159.974 210.833 160.501C213.324 161.525 214.202 161.906 214.525 162.52C214.73 162.901 214.671 163.34 214.378 163.662C214.085 163.984 213.646 164.072 213.265 163.926C210.57 162.842 202.895 160.559 199.672 163.106C199.291 163.399 199.233 163.574 199.233 163.574C199.643 164.101 203.393 164.833 205.414 165.214C208.812 165.858 210.775 166.297 211.507 167.233C211.771 167.585 211.8 168.053 211.566 168.404C211.331 168.755 210.892 168.931 210.482 168.814C204.213 167.116 196.713 166.18 195.454 167.585C195.512 168.551 199.819 170.541 201.869 171.507C205.15 173.029 206.996 173.937 207.523 175.02C207.699 175.43 207.933 176.249 207.201 177.244C205.502 179.645 199.379 181.87 195.571 181.489C191.938 181.138 190.767 181.782 190.649 181.957C190.679 182.074 191.089 182.806 192.934 183.714C195.454 184.972 199.994 188.427 204.008 191.471C205.941 192.935 207.787 194.34 209.017 195.218C209.457 195.54 209.574 196.154 209.281 196.594C209.046 196.945 208.754 197.091 208.431 197.091Z" fill="black"/>
</g>
<g id="Body 1">
<path id="Vector_60" d="M365.98 209.795C365.951 208.888 365.921 207.922 365.892 206.956C365.423 190.036 364.632 161.759 315.153 161.759C314.978 161.759 314.802 161.759 314.597 161.759C274.785 161.935 274.727 181.84 274.668 202.946C274.668 204.438 274.668 205.931 274.639 207.454L274.58 255.226C274.58 255.49 274.697 255.753 274.873 255.929C275.049 256.104 275.312 256.221 275.576 256.221H364.31C364.837 256.221 365.277 255.812 365.306 255.255C365.365 254.992 366.624 226.744 365.98 209.795Z" fill="black"/>
<path id="Vector_61" d="M275.341 226.481C274.814 226.481 274.374 226.071 274.345 225.544L273.525 213.952C273.027 213.718 272.47 213.279 271.972 212.459C269.921 209.18 269.453 200.867 273.085 189.685C273.261 189.158 273.818 188.865 274.345 189.041C274.872 189.217 275.165 189.773 274.989 190.3C271.591 200.809 271.943 208.595 273.671 211.405C273.964 211.874 274.316 212.166 274.609 212.225C275.077 212.283 275.429 212.664 275.458 213.132L276.337 225.397C276.366 225.954 275.956 226.422 275.4 226.451C275.4 226.481 275.37 226.481 275.341 226.481Z" fill="white"/>
</g>
<g id="Hand 1 1">
<path id="Vector_62" d="M182.213 234.297C171.901 221.592 168.005 211.464 163.611 211.142C159.216 210.82 165.486 219.309 165.486 222.119C165.486 224.959 151.336 209.239 146.005 210.176C140.673 211.113 153.094 223.934 153.094 223.934C153.094 223.934 137.187 216.762 134.99 220.539C132.793 224.285 147.352 232.13 147.352 232.13C145.594 230.345 130.713 224.051 129.98 229.32C129.512 232.804 141.405 236.316 144.803 249.167C146.532 255.695 154.09 263.598 154.09 263.598L182.213 234.297Z" fill="white"/>
<path id="Vector_63" d="M154.09 264.623C153.826 264.623 153.563 264.506 153.358 264.301C153.035 263.979 145.565 256.134 143.808 249.43C141.816 241.82 136.748 237.663 133.056 234.648C130.537 232.599 128.721 231.106 128.984 229.203C129.16 227.945 129.98 227.008 131.269 226.569C132.851 226.042 135.166 226.276 137.568 226.861C135.752 225.339 134.316 223.729 133.906 222.295C133.672 221.475 133.759 220.714 134.14 220.07C136.015 216.88 143.895 219.221 149.315 221.329C146.415 217.933 142.987 213.279 143.778 210.849C143.925 210.352 144.423 209.474 145.8 209.239C149.081 208.654 154.324 212.752 160.301 217.758C161.59 218.812 163.054 220.07 164.109 220.831C163.816 220.012 163.347 218.987 162.908 218.05C161.531 215.094 160.359 212.547 161.384 211.054C161.707 210.615 162.322 210.059 163.64 210.176C166.775 210.41 169.206 214.099 173.278 220.187C175.768 223.934 178.873 228.618 182.975 233.682C183.326 234.121 183.268 234.736 182.828 235.087C182.389 235.438 181.774 235.38 181.422 234.941C177.262 229.818 174.128 225.076 171.608 221.3C168.152 216.089 165.662 212.313 163.494 212.167C163.142 212.137 163.025 212.196 163.025 212.196C162.703 212.781 164.08 215.767 164.724 217.202C165.662 219.192 166.452 220.919 166.452 222.149C166.452 222.705 166.189 223.144 165.72 223.378C164.636 223.905 163.318 222.88 159.012 219.28C154.94 215.884 148.788 210.732 146.122 211.201C145.712 211.289 145.653 211.406 145.653 211.464C145.126 213.074 149.461 218.841 153.768 223.29C154.09 223.641 154.149 224.168 153.856 224.549C153.592 224.929 153.065 225.076 152.625 224.9C145.331 221.622 136.835 219.309 135.81 221.095C135.752 221.212 135.664 221.417 135.781 221.768C136.337 223.788 140.614 226.949 144.481 229.379C146.21 230.169 147.499 230.96 148.026 231.486C148.378 231.838 148.407 232.394 148.114 232.774C147.821 233.155 147.264 233.301 146.825 233.067C146.444 232.862 145.126 232.13 143.456 231.106C139.882 229.467 134.316 227.681 131.826 228.501C131.094 228.735 130.947 229.145 130.889 229.496C130.771 230.257 132.47 231.662 134.257 233.126C137.949 236.141 143.515 240.707 145.682 248.962C147.323 255.168 154.676 262.867 154.735 262.954C155.115 263.364 155.115 263.979 154.705 264.359C154.588 264.535 154.354 264.623 154.09 264.623Z" fill="black"/>
<path id="Vector_64" d="M328.043 194.691C327.135 181.87 317.79 172.561 305.808 172.561C299.803 172.561 293.563 175.4 289.139 180.113C285.185 184.358 283.193 189.598 283.573 194.837C286.151 230.93 276.396 252.358 254.571 258.505C233.128 264.535 208.989 256.163 182.858 233.565C182.477 233.214 181.862 233.243 181.51 233.623C176.501 238.6 171.902 243.517 167.449 248.26C162.996 253.031 158.397 257.949 153.387 262.925C153.036 263.276 153.006 263.862 153.299 264.272C171.579 286.987 204.331 305.253 239.192 305.253C249.093 305.253 259.171 303.789 269.131 300.511C317.028 284.792 330.972 235.526 328.043 194.691Z" fill="black"/>
<path id="Vector_65" d="M276.659 242.259C276.513 242.259 276.337 242.229 276.19 242.141C275.692 241.878 275.517 241.293 275.751 240.795C286.473 219.807 287.029 185.997 287.029 185.646C287.029 185.089 287.469 184.65 288.026 184.65C288.582 184.65 289.022 185.119 289.022 185.675C289.022 186.026 288.465 220.304 277.509 241.702C277.392 242.054 277.04 242.259 276.659 242.259Z" fill="white"/>
<path id="Vector_66" d="M319.166 253.646C319.107 253.646 319.019 253.646 318.961 253.616C318.433 253.499 318.082 252.972 318.17 252.445C322.915 229.174 323.853 209.474 323.853 209.269C323.882 208.712 324.263 208.273 324.908 208.303C325.464 208.332 325.874 208.8 325.874 209.356C325.874 209.561 324.937 229.408 320.162 252.855C320.045 253.294 319.634 253.646 319.166 253.646Z" fill="white"/>
</g>
</g>
<g id="Objects 1">
<path id="Vector_67" d="M175.242 164.072C174.744 164.072 174.334 163.721 174.246 163.194L173.074 154.412C173.016 153.856 173.397 153.358 173.924 153.3C174.48 153.241 174.978 153.622 175.037 154.149L176.209 162.93C176.267 163.486 175.887 163.984 175.359 164.043C175.33 164.072 175.271 164.072 175.242 164.072Z" fill="black"/>
<path id="Vector_68" d="M164.694 172.297C164.46 172.297 164.226 172.209 164.05 172.063L159.363 167.965C158.952 167.614 158.894 166.97 159.275 166.56C159.626 166.15 160.271 166.092 160.681 166.472L165.368 170.57C165.778 170.921 165.837 171.565 165.456 171.975C165.222 172.18 164.958 172.297 164.694 172.297Z" fill="black"/>
<path id="Vector_69" d="M436.727 87.9929C436.464 87.9929 436.171 87.8758 435.966 87.6709L430.077 81.0553C429.697 80.6455 429.755 80.0015 430.165 79.6503C430.575 79.2697 431.22 79.3283 431.572 79.7381L437.46 86.3537C437.841 86.7635 437.782 87.4075 437.372 87.7587C437.225 87.9344 436.962 87.9929 436.727 87.9929Z" fill="black"/>
<path id="Vector_70" d="M451.433 121.744C451.316 121.744 451.199 121.715 451.111 121.685C450.584 121.51 450.32 120.924 450.496 120.427L456.355 103.566C456.53 103.039 457.116 102.775 457.614 102.951C458.142 103.127 458.405 103.712 458.229 104.21L452.341 121.071C452.224 121.51 451.843 121.744 451.433 121.744Z" fill="black"/>
<path id="Vector_71" d="M26.306 211.991C21.2966 211.991 17.2246 207.922 17.2246 202.916C17.2246 197.911 21.2966 193.842 26.306 193.842C31.3154 193.842 35.3874 197.911 35.3874 202.916C35.3874 207.922 31.3154 211.991 26.306 211.991ZM26.306 195.862C22.4098 195.862 19.2167 199.023 19.2167 202.946C19.2167 206.839 22.3805 210.029 26.306 210.029C30.2315 210.029 33.3953 206.868 33.3953 202.946C33.3953 199.023 30.2315 195.862 26.306 195.862Z" fill="black"/>
<path id="Vector_72" d="M6.12255 224.783C5.91749 224.783 5.71243 224.724 5.53666 224.607L1.02526 221.387C0.585839 221.065 0.46866 220.451 0.790902 219.982C1.11315 219.543 1.72834 219.426 2.19705 219.748L6.70845 222.968C7.14787 223.29 7.26505 223.905 6.94281 224.373C6.76704 224.637 6.4448 224.783 6.12255 224.783Z" fill="black"/>
<path id="Vector_73" d="M48.6002 272.38C48.3366 272.38 48.0436 272.263 47.8678 272.058C47.487 271.648 47.5163 271.004 47.9264 270.653L55.0158 264.213C55.4259 263.832 56.0704 263.862 56.4219 264.271C56.8028 264.681 56.7735 265.325 56.3633 265.676L49.274 272.116C49.0982 272.292 48.8639 272.38 48.6002 272.38Z" fill="black"/>
<path id="Vector_74" d="M82.0828 251.157C81.702 251.157 81.3504 250.952 81.1747 250.601L78.5967 245.449C78.3624 244.952 78.5381 244.366 79.0362 244.103C79.5342 243.869 80.1201 244.044 80.3837 244.542L82.9617 249.694C83.196 250.191 83.0202 250.777 82.5222 251.04C82.3758 251.128 82.2293 251.157 82.0828 251.157Z" fill="black"/>
<path id="Vector_75" d="M398.673 49.8215H390.207C389.65 49.8215 389.211 49.3824 389.211 48.8263V22.4225C389.211 21.8663 389.65 21.4272 390.207 21.4272H398.673C399.23 21.4272 399.669 21.8663 399.669 22.4225V48.8263C399.699 49.3824 399.23 49.8215 398.673 49.8215ZM391.232 47.831H397.677V23.4178H391.232V47.831Z" fill="black"/>
<path id="Vector_76" d="M191.706 418.801C191.471 418.801 191.237 418.713 191.032 418.537L181.277 409.873C180.866 409.521 180.837 408.877 181.189 408.467C181.54 408.058 182.185 408.028 182.595 408.38L192.35 417.044C192.76 417.396 192.789 418.04 192.438 418.449C192.262 418.684 191.999 418.801 191.706 418.801Z" fill="black"/>
</g>
</g>
<defs>
<linearGradient id="paint0_linear_493_2271" x1="273.137" y1="-41.6926" x2="273.137" y2="759.672" gradientUnits="userSpaceOnUse">
<stop offset="0.00540541" stop-color="#485FE5"/>
<stop offset="1" stop-color="white"/>
</linearGradient>
<linearGradient id="paint1_linear_493_2271" x1="28.5684" y1="49.4043" x2="82.8315" y2="162.333" gradientUnits="userSpaceOnUse">
<stop stop-color="#7700E3"/>
<stop offset="0.0849784" stop-color="#7C0AE4"/>
<stop offset="0.2279" stop-color="#8A24E7"/>
<stop offset="0.4113" stop-color="#A14EEC"/>
<stop offset="0.6279" stop-color="#C08AF2"/>
<stop offset="0.8698" stop-color="#E8D4FA"/>
<stop offset="1" stop-color="white"/>
</linearGradient>
<linearGradient id="paint2_linear_493_2271" x1="66.2468" y1="96.2391" x2="66.2468" y2="182.399" gradientUnits="userSpaceOnUse">
<stop offset="0.00540541" stop-color="#485FE5"/>
<stop offset="1" stop-color="white"/>
</linearGradient>
<linearGradient id="paint3_linear_493_2271" x1="55.3175" y1="36.5512" x2="109.581" y2="149.48" gradientUnits="userSpaceOnUse">
<stop stop-color="#7700E3"/>
<stop offset="0.0849784" stop-color="#7C0AE4"/>
<stop offset="0.2279" stop-color="#8A24E7"/>
<stop offset="0.4113" stop-color="#A14EEC"/>
<stop offset="0.6279" stop-color="#C08AF2"/>
<stop offset="0.8698" stop-color="#E8D4FA"/>
<stop offset="1" stop-color="white"/>
</linearGradient>
<linearGradient id="paint4_linear_493_2271" x1="92.8904" y1="83.1837" x2="92.8904" y2="169.344" gradientUnits="userSpaceOnUse">
<stop offset="0.00540541" stop-color="#485FE5"/>
<stop offset="1" stop-color="white"/>
</linearGradient>
<linearGradient id="paint5_linear_493_2271" x1="82.0152" y1="23.7223" x2="136.278" y2="136.651" gradientUnits="userSpaceOnUse">
<stop stop-color="#7700E3"/>
<stop offset="0.0849784" stop-color="#7C0AE4"/>
<stop offset="0.2279" stop-color="#8A24E7"/>
<stop offset="0.4113" stop-color="#A14EEC"/>
<stop offset="0.6279" stop-color="#C08AF2"/>
<stop offset="0.8698" stop-color="#E8D4FA"/>
<stop offset="1" stop-color="white"/>
</linearGradient>
<linearGradient id="paint6_linear_493_2271" x1="116.395" y1="50.6237" x2="116.395" y2="172.569" gradientUnits="userSpaceOnUse">
<stop offset="0.00540541" stop-color="#485FE5"/>
<stop offset="1" stop-color="white"/>
</linearGradient>
<clipPath id="clip0_493_2271">
<rect width="523" height="482" fill="white"/>
</clipPath>
</defs>
</svg>
