<svg width="20" height="20" viewBox="0 0 20 20" fill="none" xmlns="http://www.w3.org/2000/svg">
<path d="M16.6564 4.31832C16.5572 4.21746 16.4391 4.1374 16.3091 4.08276C16.179 4.02813 16.0395 4 15.8986 4C15.7577 4 15.6182 4.02813 15.4881 4.08276C15.3581 4.1374 15.24 4.21746 15.1408 4.31832L7.18924 12.3464L3.84852 8.9673C3.7455 8.86697 3.62389 8.78807 3.49063 8.73512C3.35737 8.68217 3.21507 8.6562 3.07185 8.6587C2.92864 8.6612 2.78732 8.69211 2.65595 8.74968C2.52459 8.80724 2.40575 8.89034 2.30624 8.99421C2.20672 9.09808 2.12847 9.2207 2.07596 9.35506C2.02344 9.48943 1.99769 9.6329 2.00016 9.7773C2.00264 9.9217 2.0333 10.0642 2.0904 10.1966C2.14749 10.3291 2.2299 10.4489 2.33292 10.5492L6.43144 14.6817C6.53066 14.7825 6.64871 14.8626 6.77877 14.9172C6.90884 14.9719 7.04834 15 7.18924 15C7.33014 15 7.46965 14.9719 7.59971 14.9172C7.72977 14.8626 7.84782 14.7825 7.94704 14.6817L16.6564 5.90027C16.7647 5.7995 16.8512 5.67719 16.9103 5.54106C16.9695 5.40492 17 5.25792 17 5.1093C17 4.96068 16.9695 4.81367 16.9103 4.67754C16.8512 4.5414 16.7647 4.4191 16.6564 4.31832Z" fill="white"/>
</svg>
